<svg width="42" height="42" viewBox="0 0 42 42" fill="none" xmlns="http://www.w3.org/2000/svg">
<path d="M27.8215 11.5188L22.7475 18.5897C22.5567 18.8568 22.2536 19 21.9449 19C21.7484 19 21.552 18.9422 21.3808 18.8238C20.9373 18.5181 20.8307 17.9151 21.1422 17.4801L21.4285 17.0808C21.2517 16.9266 21.0749 16.7724 20.8952 16.6238C20.5978 16.3677 20.2975 16.1226 20 15.8858L20.101 15.7619C20.4097 15.236 20.6567 14.6715 20.8447 14.0823C20.9738 14.1814 21.1057 14.2861 21.2376 14.3907C21.5014 14.6 21.768 14.8175 22.0319 15.0405C22.2115 15.1892 22.3883 15.3406 22.5651 15.4948L26.2134 10.4092C26.5277 9.97413 27.1395 9.8695 27.583 10.1751C28.0264 10.4835 28.133 11.0838 27.8215 11.5188Z" fill="white"/>
<path d="M36.5497 26.8238C36.3763 26.9433 36.1827 27 35.989 27C35.6624 27 35.3416 26.8358 35.1479 26.5342C34.2375 25.1248 32.9195 24.3246 31.2316 24.1514C30.6333 24.0887 30.0552 24.1156 29.5321 24.1872C28.8153 24.2887 28.1968 24.4828 27.7488 24.6709C27.373 24.8322 27.1158 24.9875 27.0204 25.086C26.6273 25.4921 25.9857 25.4921 25.5926 25.086C25.1966 24.6769 25.1966 24.014 25.5926 23.6079C25.8209 23.3721 26.1533 23.1391 26.5608 22.9271C26.347 22.6375 26.1215 22.3419 25.8874 22.0433H25.8845C25.0203 20.9415 24.0521 19.8307 23 18.7348L23.6734 17.7465L24.1821 17L24.2891 17.1105C25.4452 18.3049 26.5088 19.5202 27.4568 20.7235C27.8615 21.2401 28.2372 21.7447 28.5812 22.2344C29.4685 22.0463 30.4541 21.9686 31.431 22.0702C33.7201 22.3061 35.5873 23.4467 36.8301 25.3756C37.1393 25.8564 37.0151 26.5043 36.5497 26.8238Z" fill="white"/>
<path d="M36.2722 9.23373L27.3618 16.3124C26.9251 16.6593 26.877 17.2661 27.2543 17.6674C27.4609 17.8875 27.7522 18 28.0454 18C28.2875 18 28.5305 17.9232 28.7278 17.7662L37.6382 10.6875C38.0749 10.3406 38.123 9.73405 37.7457 9.33253C37.3684 8.93128 36.7083 8.88682 36.2722 9.23373Z" fill="white"/>
<path d="M41.9648 16.383C41.8802 16.1115 41.6549 15.9137 41.3839 15.8726L39.1459 15.5332L38.1449 13.4183C38.0235 13.162 37.7735 13 37.4999 13C37.2259 13 36.9762 13.1623 36.8548 13.4183L35.8541 15.5332L33.6161 15.8726C33.3454 15.9137 33.1198 16.1115 33.0352 16.383C32.9506 16.6546 33.0211 16.9526 33.2174 17.1521L34.8367 18.7983L34.4546 21.123C34.4082 21.4045 34.5193 21.6889 34.7406 21.8567C34.9618 22.0244 35.2562 22.0469 35.4982 21.9137L37.4999 20.816L39.5018 21.9137C39.6069 21.9713 39.722 21.9998 39.8365 21.9998C39.9855 21.9998 40.134 21.9515 40.2594 21.8564C40.481 21.6883 40.5918 21.4042 40.5454 21.1227L40.1633 18.798L41.7826 17.1518C41.9789 16.9526 42.0494 16.6546 41.9648 16.383ZM38.8881 17.9992C38.7187 18.1715 38.6413 18.4196 38.6813 18.6633L38.8809 19.8786L37.8342 19.3048C37.7295 19.2475 37.6144 19.2187 37.4996 19.2187C37.3848 19.2187 37.2697 19.2475 37.1649 19.3048L36.1185 19.8786L36.3182 18.6633C36.3585 18.4196 36.2808 18.1715 36.1113 17.9992L35.2648 17.1386L36.4347 16.9613C36.6689 16.9259 36.8718 16.7722 36.9765 16.5511L37.4993 15.4453L38.0224 16.5511C38.1271 16.7725 38.3297 16.9259 38.5642 16.9613L39.734 17.1386L38.8881 17.9992Z" fill="white"/>
<path d="M6.83671 5.15396L6.45432 7.22056C6.40799 7.47075 6.51906 7.7236 6.74061 7.8727C6.96187 8.0218 7.25536 8.04154 7.4982 7.92338L9.49994 6.94769L11.5017 7.92338C11.607 7.97459 11.7218 7.99993 11.8363 7.99993C11.9856 7.99993 12.1341 7.95699 12.2593 7.87244C12.4808 7.72334 12.5919 7.47048 12.5456 7.22029L12.1632 5.15396L13.7828 3.6907C13.9787 3.51359 14.0495 3.24846 13.9646 3.00708C13.88 2.76569 13.655 2.58965 13.384 2.55311L11.146 2.25171L10.145 0.371817C10.0239 0.144032 9.77386 0 9.49994 0C9.22602 0 8.97598 0.144032 8.85485 0.371817L7.85383 2.25171L5.61587 2.55311C5.34483 2.58965 5.11982 2.76542 5.03523 3.00708C4.95064 3.24846 5.02113 3.51332 5.21708 3.6907L6.83671 5.15396ZM8.43505 3.52132C8.66926 3.48958 8.87211 3.35329 8.97656 3.15644L9.49965 2.17355L10.0227 3.15644C10.1275 3.35329 10.33 3.48958 10.5642 3.52132L11.7342 3.67896L10.8877 4.44393C10.7182 4.59703 10.6408 4.81788 10.6808 5.0342L10.8805 6.11417L9.83428 5.60419C9.62452 5.50204 9.3742 5.50204 9.16473 5.60419L8.11826 6.11417L8.31794 5.03393C8.35794 4.81762 8.28083 4.59703 8.11106 4.44393L7.26456 3.67896L8.43505 3.52132Z" fill="white"/>
<path d="M30.0893 24.8709C29.2681 24.9131 28.5535 25.1073 28.077 25.2902C28.6375 26.2526 28.8702 26.8745 28.9655 27.2348C29.017 27.4312 29.0341 27.5632 29.0378 27.6507L29.0198 27.6586C28.9324 27.6546 28.8018 27.6394 28.6151 27.5893C28.2312 27.4852 27.5557 27.2291 26.4992 26.5875C25.6079 26.0444 24.6326 25.3437 23.6012 24.5022C22.5222 23.6242 21.432 22.6336 20.3614 21.5558C19.288 20.478 18.3015 19.3833 17.4271 18.3027C16.5891 17.2671 15.8884 16.2877 15.3503 15.3928C14.7113 14.3319 14.4563 13.6537 14.3526 13.2682C14.3024 13.0799 14.2876 12.9485 14.2837 12.8607L14.2909 12.8438C14.3756 12.8474 14.5095 12.8643 14.7029 12.9164C15.0869 13.0177 15.7651 13.2738 16.8217 13.9182C16.8778 13.952 16.9366 13.9886 16.9955 14.028C17.1886 14.1459 17.3845 14.2722 17.5829 14.4101C17.4478 14.6643 17.2967 14.908 17.1264 15.1356C16.8007 15.5704 16.8878 16.1878 17.3209 16.5148C17.4974 16.6482 17.7045 16.7124 17.9097 16.7124C18.2076 16.7124 18.5016 16.5768 18.6944 16.3195C19.0708 15.8169 19.3822 15.2634 19.628 14.6744C19.6389 14.6479 19.6481 14.6209 19.6591 14.5945C19.7095 14.4701 19.758 14.3449 19.8023 14.2177C19.8211 14.1642 19.837 14.1096 19.8547 14.0558C19.8875 13.9554 19.92 13.8549 19.9491 13.753C19.9545 13.7347 19.9609 13.7173 19.966 13.699C19.9651 13.6984 19.9646 13.6979 19.9637 13.6973C20.3796 12.2039 20.4077 10.5505 20.0069 8.93832C19.4436 6.67181 18.1308 4.86035 16.4949 4.09293C16.0045 3.86245 15.4201 4.07548 15.1911 4.56824C14.9619 5.061 15.1738 5.64718 15.6645 5.87738C16.7536 6.38843 17.6883 7.74372 18.1033 9.41476C18.3603 10.449 18.3985 11.4989 18.2325 12.4782C18.232 12.478 18.2314 12.4774 18.2309 12.4771C18.0963 12.3927 17.9646 12.3111 17.8357 12.2323C16.8296 11.6188 15.9439 11.2079 15.2068 11.0109C14.1755 10.738 13.3823 10.8702 12.8498 11.4049C12.5923 11.6635 12.4308 11.9832 12.3602 12.3595L0.0819355 40.6213C-0.0794954 40.9925 0.00206089 41.4251 0.287368 41.7116C0.475143 41.9004 0.726258 42 0.981296 42C1.11358 42 1.24698 41.973 1.3731 41.9178L29.5083 29.5933C29.8886 29.5235 30.2107 29.358 30.4702 29.0974C31.0027 28.5627 31.1344 27.7663 30.8626 26.7307C30.7199 26.1879 30.4593 25.566 30.0893 24.8709ZM13.6716 16.4144C14.2573 17.3853 15.0084 18.4377 15.9024 19.5437C16.8217 20.6778 17.8531 21.8232 18.9741 22.9488C20.0924 24.0745 21.2358 25.1101 22.3653 26.0331C23.4667 26.9308 24.5149 27.685 25.4818 28.2704C25.8069 28.4685 26.1177 28.6432 26.4168 28.7989L23.5331 30.0621C18.7597 30.213 14.1231 28.6936 11.5278 26.0857C10.5677 25.1208 9.98527 24.0832 9.83617 23.0968L13.1475 15.4753C13.3019 15.775 13.4751 16.0874 13.6716 16.4144ZM12.1766 35.0364C9.66157 34.9641 7.73365 34.3492 6.69668 33.2759C6.32365 32.8898 6.08178 32.4525 5.97332 31.9876L9.00688 25.0054C9.36646 25.7196 9.88018 26.4201 10.5368 27.0797C12.4395 28.9916 15.9148 30.8923 20.55 31.3685L12.1766 35.0364ZM5.23203 33.6943C5.36796 33.8885 5.51818 34.0773 5.6911 34.2563C6.37522 34.9644 7.56521 35.7565 9.59263 36.1688L2.87951 39.1096L5.23203 33.6943Z" fill="white"/>
<path d="M34 7C35.6542 7 37 5.65418 37 4C37 2.34582 35.6542 1 34 1C32.3458 1 31 2.34582 31 4C31 5.65418 32.3458 7 34 7ZM34 2.49835C34.828 2.49835 35.5016 3.17201 35.5016 4C35.5016 4.82799 34.828 5.50165 34 5.50165C33.172 5.50165 32.4984 4.82799 32.4984 4C32.4984 3.17201 33.172 2.49835 34 2.49835Z" fill="white"/>
<path d="M24.5 8C25.8786 8 27 6.87863 27 5.5C27 4.12137 25.8786 3 24.5 3C23.1214 3 22 4.12137 22 5.5C22 6.87863 23.1216 8 24.5 8ZM24.5 4.40304C25.1049 4.40304 25.5972 4.89513 25.5972 5.50028C25.5972 6.10543 25.1051 6.59752 24.5 6.59752C23.8948 6.59752 23.4028 6.10543 23.4028 5.50028C23.4028 4.89513 23.8951 4.40304 24.5 4.40304Z" fill="white"/>
<path d="M36.5001 30C35.1214 30 34 31.1214 34 32.4999C34 33.8786 35.1214 35 36.5001 35C37.8786 35 39 33.8786 39 32.4999C39 31.1214 37.8786 30 36.5001 30ZM36.5001 33.5972C35.8952 33.5972 35.4028 33.1048 35.4028 32.4999C35.4028 31.895 35.8952 31.4028 36.5001 31.4028C37.105 31.4028 37.5972 31.895 37.5972 32.4999C37.5972 33.1048 37.105 33.5972 36.5001 33.5972Z" fill="white"/>
</svg>
