<svg width="43" height="40" viewBox="0 0 43 40" fill="none" xmlns="http://www.w3.org/2000/svg">
<path d="M37.9414 10.796L37.9414 28.6733C37.9414 32.042 35.1894 34.794 31.8207 34.794L6.22884 34.794C2.8601 34.794 0.10813 32.042 0.10813 28.6733L0.108131 10.796C0.108131 7.42728 2.8601 4.67531 6.22884 4.67531L31.8207 4.67531C35.1894 4.67531 37.9414 7.42728 37.9414 10.796ZM12.54 12.1435L12.54 14.6623C12.54 15.7892 11.6183 16.711 10.4913 16.711L7.97256 16.711C6.84561 16.711 5.92389 15.7892 5.92389 14.6623L5.92389 12.1435C5.92389 11.0171 6.84561 10.0948 7.97256 10.0948L10.4913 10.0948C11.6183 10.0948 12.54 11.0171 12.54 12.1435ZM35.0264 28.5551L3.02313 28.5551L3.02313 28.6733C3.02313 30.4339 4.46823 31.879 6.22884 31.879L31.8207 31.879C33.5813 31.879 35.0264 30.4339 35.0264 28.6733L35.0264 28.5551ZM3.02313 21.5111L35.0264 21.5111L35.0264 10.796C35.0264 9.03542 33.5813 7.59031 31.8207 7.59031L6.22884 7.59031C4.46823 7.59031 3.02313 9.03541 3.02313 10.796L3.02313 21.5111ZM42.8914 9.63372L42.8914 29.8356C42.8914 33.7757 40.6137 37.337 37.1263 39.0417C35.3366 39.9165 34.6233 37.1133 36.4836 36.0703C38.6399 34.7349 39.9764 32.3865 39.9764 29.8356L39.9764 9.63372C39.9764 7.08276 38.6399 4.73441 36.4836 3.39905C34.4682 2.18925 35.4137 -0.365393 36.9084 0.32471C40.5303 1.99193 42.8914 5.62341 42.8914 9.63372Z" fill="white"/>
</svg>
