<svg width="96" height="92" viewBox="0 0 96 92" fill="none" xmlns="http://www.w3.org/2000/svg">
<path d="M77.5619 30.6283L96 49.3712L48 91.7331L0 49.3712L18.4381 30.6283H77.5619Z" fill="#DFA670"/>
<path d="M77.5619 30.6283L96 49.3712L48 91.7331L0 49.3712L18.4381 30.6283H77.5619Z" fill="#DFA670"/>
<path d="M96 49.2189L48 91.7332L0 49.2189" fill="#FFAE63"/>
<path d="M77.5618 30.6283L76.1904 49.3712L47.9999 91.7331L21.3332 49.3712L18.438 30.6283H77.5618Z" fill="#DFA670"/>
<path d="M77.5618 30.6283L76.1904 49.3712L47.9999 30.6283L21.3332 49.3712L18.438 30.6283H77.5618Z" fill="#C49B75"/>
<path d="M76.1904 49.2189L47.9999 91.7332L21.3333 49.2189" fill="#FFCD9F"/>
<path d="M9.6 49.2188L48 91.7331L0 49.3712L18.4381 30.6283" fill="#FFAE63"/>
<path d="M86.4 49.2188L48 91.7331L95.8476 49.2188L77.5619 30.6283" fill="#FFCD9F"/>
<path d="M41.1428 18.1332L48.1523 -0.000183105L54.8571 18.1332" fill="#FFAE63"/>
<path d="M47.3904 18.1332L48.1523 -0.000183105L54.857 18.1332" fill="#FFCD9F"/>
<path d="M21.7904 26.5142L18.1333 7.46655L33.3714 19.1999" fill="#FFAE63"/>
<path d="M27.1238 23.1618L18.1333 7.46655L33.3714 19.1999" fill="#FFCD9F"/>
<path d="M74.2096 26.5142L77.8668 7.46655L62.6287 19.1999" fill="#FFAE63"/>
<path d="M68.8763 23.1618L77.8668 7.46655L62.6287 19.1999" fill="#FFCD9F"/>
</svg>
