<svg width="20" height="20" viewBox="0 0 20 20" fill="none" xmlns="http://www.w3.org/2000/svg">
<path d="M19.9454 5.88007C19.8985 4.81739 19.7267 4.08681 19.4805 3.45375C19.2265 2.78177 18.8358 2.18015 18.3239 1.68002C17.8238 1.17211 17.2182 0.777437 16.554 0.527448C15.9173 0.281275 15.1905 0.109427 14.1279 0.0625734C13.0572 0.0117516 12.7174 0 10.002 0C7.2866 0 6.94672 0.0117516 5.88007 0.0586054C4.81739 0.105459 4.08681 0.27746 3.4539 0.52348C2.78177 0.777437 2.18015 1.16814 1.68002 1.68002C1.17211 2.18015 0.77759 2.78574 0.527448 3.44993C0.281275 4.08681 0.109427 4.81342 0.0625734 5.8761C0.0117516 6.94672 0 7.2866 0 10.002C0 12.7174 0.0117516 13.0572 0.0586054 14.1239C0.105459 15.1866 0.27746 15.9172 0.523633 16.5502C0.77759 17.2222 1.17211 17.8238 1.68002 18.3239C2.18015 18.8319 2.78574 19.2265 3.44993 19.4765C4.08681 19.7227 4.81342 19.8945 5.87626 19.9414C6.94275 19.9884 7.28279 20 9.99817 20C12.7136 20 13.0534 19.9884 14.1201 19.9414C15.1828 19.8945 15.9133 19.7227 16.5463 19.4765C17.8904 18.9569 18.953 17.8942 19.4727 16.5502C19.7187 15.9133 19.8907 15.1866 19.9376 14.1239C19.9844 13.0572 19.9962 12.7174 19.9962 10.002C19.9962 7.2866 19.9922 6.94672 19.9454 5.88007ZM18.1443 14.0458C18.1013 15.0225 17.9372 15.55 17.8005 15.9016C17.4644 16.7729 16.7729 17.4644 15.9016 17.8005C15.55 17.9372 15.0187 18.1013 14.0458 18.1442C12.9909 18.1912 12.6745 18.2028 10.006 18.2028C7.33742 18.2028 7.01708 18.1912 5.966 18.1442C4.98924 18.1013 4.46179 17.9372 4.11016 17.8005C3.67657 17.6402 3.2819 17.3863 2.96156 17.0542C2.62946 16.7298 2.3755 16.3391 2.21525 15.9056C2.07851 15.5539 1.91444 15.0225 1.87156 14.0497C1.82455 12.9948 1.81295 12.6783 1.81295 10.0098C1.81295 7.34124 1.82455 7.02089 1.87156 5.96996C1.91444 4.99321 2.07851 4.46576 2.21525 4.11413C2.3755 3.68039 2.62946 3.28587 2.96552 2.96537C3.28968 2.63327 3.68039 2.37932 4.11413 2.21922C4.46576 2.08247 4.99718 1.91841 5.96997 1.87537C7.02486 1.82852 7.34139 1.81677 10.0098 1.81677C12.6823 1.81677 12.9986 1.82852 14.0497 1.87537C15.0265 1.91841 15.5539 2.08247 15.9056 2.21922C16.3391 2.37932 16.7338 2.63327 17.0542 2.96537C17.3863 3.28968 17.6402 3.68039 17.8005 4.11413C17.9372 4.46576 18.1013 4.99702 18.1443 5.96996C18.1912 7.02486 18.2029 7.34124 18.2029 10.0098C18.2029 12.6783 18.1912 12.9909 18.1443 14.0458Z" fill="#31689A"/>
<path d="M10.0021 4.86424C7.16565 4.86424 4.86432 7.16542 4.86432 10.002C4.86432 12.8385 7.16565 15.1397 10.0021 15.1397C12.8386 15.1397 15.1398 12.8385 15.1398 10.002C15.1398 7.16542 12.8386 4.86424 10.0021 4.86424ZM10.0021 13.3347C8.16194 13.3347 6.66933 11.8423 6.66933 10.002C6.66933 8.16171 8.16194 6.66926 10.0021 6.66926C11.8423 6.66926 13.3348 8.16171 13.3348 10.002C13.3348 11.8423 11.8423 13.3347 10.0021 13.3347Z" fill="#31689A"/>
<path d="M16.5424 4.66111C16.5424 5.32347 16.0053 5.86053 15.3428 5.86053C14.6805 5.86053 14.1434 5.32347 14.1434 4.66111C14.1434 3.99859 14.6805 3.46168 15.3428 3.46168C16.0053 3.46168 16.5424 3.99859 16.5424 4.66111Z" fill="#31689A"/>
</svg>
