<svg width="46" height="44" viewBox="0 0 46 44" fill="none" xmlns="http://www.w3.org/2000/svg">
<path d="M8.5579 39.7C9.11769 39.7009 9.67209 39.5907 10.1889 39.3758C10.7056 39.161 11.1745 38.8457 11.5683 38.4485C11.5684 38.4484 11.5685 38.4483 11.5685 38.4483L13.2145 36.7967L13.0728 36.6555L13.2145 36.7967C13.3658 36.6449 13.4505 36.4392 13.45 36.2249C13.4495 36.0106 13.3638 35.8054 13.2118 35.6543C13.0598 35.5032 12.854 35.4187 12.6397 35.4192C12.4253 35.4197 12.22 35.5052 12.0687 35.657L11.7287 35.9982H11.729L10.4229 37.309C10.4228 37.3091 10.4227 37.3092 10.4226 37.3093C9.9281 37.803 9.2574 38.0805 8.55803 38.0805C7.85853 38.0805 7.18773 37.8029 6.6932 37.309C6.19867 36.8151 5.9209 36.1452 5.92091 35.4468C5.92092 34.7485 6.19864 34.0788 6.69309 33.5849C6.69314 33.5848 6.69319 33.5848 6.69325 33.5847L8.3453 31.9424C8.42276 31.8687 8.48483 31.7804 8.52788 31.6825C8.5713 31.5838 8.59449 31.4774 8.59609 31.3696C8.59769 31.2618 8.57767 31.1547 8.5372 31.0548C8.49673 30.9548 8.43665 30.864 8.3605 30.7876C8.28436 30.7113 8.19369 30.6509 8.09385 30.6101C7.99401 30.5693 7.88702 30.5489 7.77917 30.55C7.67132 30.5512 7.56478 30.5739 7.46584 30.6168C7.36774 30.6594 7.27907 30.721 7.20496 30.798L5.55292 32.4401L5.55291 32.4401C4.95607 33.0334 4.54896 33.7904 4.38321 34.6151C4.21745 35.4398 4.30052 36.2951 4.62186 37.0725C4.94321 37.85 5.48836 38.5147 6.18823 38.9824C6.88809 39.4502 7.71117 39.6999 8.55322 39.7H8.55324H8.5579ZM8.5579 39.7L8.55821 39.5M8.5579 39.7H8.55821V39.5M8.55821 39.5H8.55324L11.4265 38.3075C11.0513 38.686 10.6045 38.9864 10.1121 39.1911C9.61975 39.3958 9.09155 39.5008 8.55821 39.5Z" fill="white" stroke="white" stroke-width="0.4"/>
<path d="M13.5762 26.3754L13.5713 26.3705L13.5713 26.3754M13.5762 26.3754H13.5713M13.5762 26.3754L13.5766 26.375L13.5715 26.1754H13.5762V26.3746V26.3754ZM13.5713 26.3754C13.0386 26.3745 12.5111 26.4795 12.0193 26.6841C11.5275 26.8888 11.0813 27.1891 10.7066 27.5676L13.5713 26.3705V26.3754ZM11.7094 28.5659L11.7098 28.5654C11.9534 28.3193 12.2435 28.1241 12.5633 27.991C12.8831 27.858 13.2261 27.7898 13.5725 27.7904H13.5728H13.5762C13.5762 27.7904 13.5762 27.7904 13.5762 27.7904C14.0975 27.7905 14.6072 27.9452 15.0405 28.2351C15.4738 28.5249 15.8114 28.9368 16.0103 29.4186C16.2093 29.9004 16.2607 30.4304 16.1582 30.9415C16.0556 31.4525 15.8036 31.9216 15.4341 32.2894C15.4341 32.2894 15.4341 32.2894 15.4341 32.2894L13.7839 33.9317C13.7063 34.0053 13.6441 34.0936 13.6009 34.1914L13.7839 34.2722L13.6009 34.1914C13.5573 34.2902 13.534 34.3967 13.5322 34.5046C13.5305 34.6125 13.5505 34.7197 13.5909 34.8198C13.6313 34.9198 13.6913 35.0108 13.7675 35.0873C13.8437 35.1638 13.9344 35.2242 14.0343 35.265C14.1342 35.3058 14.2413 35.3262 14.3493 35.3249C14.4572 35.3237 14.5638 35.3008 14.6627 35.2576C14.7607 35.2149 14.8493 35.1531 14.9232 35.0759L16.5735 33.4337L16.5736 33.4337C17.1697 32.8404 17.5763 32.0836 17.7419 31.259C17.9074 30.4345 17.8245 29.5794 17.5035 28.802C17.1826 28.0247 16.6381 27.3601 15.939 26.8924C15.2399 26.4248 14.4177 26.1751 13.5766 26.175L13.4938 26.175L13.4928 26.176C12.9605 26.1851 12.4344 26.2947 11.9425 26.4995C11.4263 26.7143 10.958 27.0295 10.5647 27.4267C10.5646 27.4268 10.5645 27.4269 10.5645 27.4269L8.92193 29.0767C8.84508 29.1508 8.78369 29.2395 8.74131 29.3375C8.6986 29.4363 8.67606 29.5426 8.67504 29.6502C8.67401 29.7578 8.69451 29.8645 8.73532 29.9641C8.77614 30.0637 8.83645 30.1541 8.91271 30.2301L9.05246 30.0897L8.91271 30.2301C8.98898 30.306 9.07965 30.3659 9.1794 30.4063C9.27915 30.4467 9.38597 30.4668 9.49358 30.4653C9.6012 30.4639 9.70744 30.4409 9.80606 30.3978C9.90393 30.3551 9.99234 30.2933 10.0662 30.2162L11.7094 28.5659Z" fill="white" stroke="white" stroke-width="0.4"/>
<path d="M8.87385 35.9545L8.87384 35.9545C8.8092 35.8791 8.75925 35.7911 8.72561 35.6963C8.69198 35.6015 8.67495 35.5007 8.675 35.3995C8.67505 35.2983 8.69218 35.1975 8.72592 35.1027C8.75962 35.008 8.80961 34.9202 8.87426 34.8449L8.87385 35.9545ZM8.87385 35.9545C9.00458 36.107 9.18909 36.2 9.38933 36.2C9.58957 36.2 9.77407 36.107 9.90481 35.9545L9.90483 35.9545L14.1311 31.0238L14.1311 31.0238L14.1328 31.0218C14.2596 30.8698 14.3261 30.6712 14.325 30.4699C14.3238 30.2686 14.255 30.0709 14.1262 29.9206C13.9967 29.7695 13.8142 29.6766 13.6158 29.675C13.4173 29.6734 13.2334 29.7634 13.1019 29.9128L13.1018 29.9128L13.1001 29.9149L8.87442 34.8447L8.87385 35.9545Z" fill="white" stroke="white" stroke-width="0.4"/>
<path d="M43.363 31.2356V26.5136H44.1747C44.3793 26.5136 44.5761 26.4336 44.7217 26.2904C44.8675 26.147 44.95 25.9518 44.95 25.7476V17.5157C44.95 17.3115 44.8675 17.1163 44.7218 16.9729C44.5761 16.8297 44.3793 16.7497 44.1747 16.7497H43.363V12.0277V12.0275C43.3616 10.8231 42.8746 9.66914 42.0099 8.81854C41.1453 7.96804 39.9737 7.4902 38.7524 7.48882H38.7522H36.6048L30.0321 1.02317L30.0321 1.02316C29.8864 0.879906 29.6896 0.8 29.485 0.8C29.2804 0.8 29.0836 0.879905 28.938 1.02317L28.938 1.02317L26.2631 3.65446L23.7852 1.21682L23.7851 1.2168C23.6395 1.07358 23.4427 0.993694 23.2381 0.993694C23.0336 0.993694 22.8368 1.07358 22.6912 1.21679L22.6911 1.21682L16.3155 7.48853L11.904 7.48853L11.9037 7.48853C10.6824 7.48992 9.5109 7.96776 8.64631 8.81825C7.78162 9.66886 7.2946 10.8228 7.29319 12.0272V12.0274V23.5413C5.69342 24.1751 4.27867 25.1921 3.17818 26.5012C2.04822 27.8454 1.28738 29.4525 0.968725 31.1689C0.650063 32.8854 0.7843 34.6536 1.35853 36.3044C1.93275 37.9552 2.92767 39.4331 4.24782 40.597C5.56796 41.761 7.16922 42.5722 8.89845 42.9534C10.6277 43.3345 12.4274 43.273 14.1256 42.7747C15.8238 42.2764 17.3641 41.3579 18.599 40.1065C19.7978 38.8918 20.67 37.4029 21.1375 35.7745H38.7522H38.7524C39.9737 35.7731 41.1453 35.2953 42.0099 34.4448C42.8746 33.5942 43.3616 32.4402 43.363 31.2358V31.2356ZM41.8123 16.7497L35.6146 16.7497L35.6137 16.7497C34.3033 16.7555 33.0479 17.2716 32.1224 18.1862C31.1967 19.1008 30.6764 20.3396 30.6764 21.6316C30.6764 22.9237 31.1967 24.1625 32.1224 25.0771C33.0479 25.9917 34.3033 26.5078 35.6137 26.5136H35.6146H41.8123V31.2353C41.8114 32.0316 41.4895 32.7956 40.9161 33.3596C40.3426 33.9238 39.5644 34.2417 38.752 34.2426H21.4504C21.6477 32.6541 21.4626 31.0411 20.9086 29.5343C20.3279 27.9551 19.3601 26.5415 18.0914 25.4189C16.8226 24.2964 15.292 23.4995 13.6356 23.0986C12.0621 22.7178 10.421 22.7056 8.84383 23.0613V12.028C8.84476 11.2317 9.16668 10.4677 9.74005 9.90367C10.3135 9.33953 11.0918 9.02162 11.9042 9.02071H16.7732L16.8639 9.11086L16.9556 9.02071H29.5201L29.6116 9.11161L29.703 9.02071H38.752C39.5644 9.02162 40.3426 9.33953 40.9161 9.90367C41.4895 10.4677 41.8114 11.2317 41.8123 12.028V16.7497ZM27.3619 4.73525L29.4849 2.64685L34.4071 7.48882H30.161L27.3619 4.73525ZM18.5128 7.48872L23.2381 2.8404L27.9635 7.48872H18.5128ZM11.163 41.6682C9.41927 41.6682 7.71494 41.1595 6.26556 40.2069C4.81616 39.2542 3.68699 37.9004 3.02034 36.3172C2.3537 34.734 2.17933 32.9921 2.51914 31.3117C2.85895 29.6312 3.69779 28.0871 4.93011 26.8748C6.16248 25.6626 7.73299 24.8366 9.44324 24.502C11.1535 24.1673 12.9262 24.3391 14.537 24.9955C16.1478 25.6518 17.5241 26.7631 18.4921 28.1882C19.4601 29.6133 19.9765 31.2883 19.9766 33.0016C19.974 35.2982 19.0454 37.5008 17.3934 39.1258C15.7414 40.7509 13.5008 41.6657 11.163 41.6682ZM43.3994 24.9817H35.6149C34.7131 24.9769 33.8505 24.6212 33.2154 23.9932C32.5803 23.3652 32.2243 22.5161 32.2243 21.6316C32.2243 20.7472 32.5803 19.8981 33.2154 19.2701C33.8505 18.6421 34.7131 18.2864 35.6149 18.2816H43.3994V24.9817Z" fill="white" stroke="white" stroke-width="0.4"/>
<path d="M33.175 21.5628L33.175 21.563C33.1751 22.0352 33.3152 22.4968 33.5776 22.8893C33.8401 23.2819 34.213 23.5878 34.6493 23.7684C35.0855 23.9491 35.5656 23.9962 36.0287 23.904C36.4918 23.8118 36.9171 23.5844 37.251 23.2505C37.5848 22.9165 37.8121 22.4911 37.9042 22.0279C37.9962 21.5648 37.9489 21.0848 37.7681 20.6486C37.5874 20.2123 37.2814 19.8395 36.8887 19.5772C36.4961 19.3149 36.0345 19.175 35.5623 19.175L35.5621 19.175C34.9291 19.1757 34.3222 19.4276 33.8747 19.8752C33.4272 20.3229 33.1755 20.9298 33.175 21.5628ZM35.5623 20.7488C35.7233 20.7487 35.8806 20.7964 36.0144 20.8858C36.1483 20.9752 36.2526 21.1022 36.3142 21.2509C36.3758 21.3996 36.392 21.5632 36.3607 21.721C36.3293 21.8789 36.2519 22.0239 36.1381 22.1377C36.0243 22.2515 35.8794 22.3291 35.7215 22.3605C35.5637 22.392 35.4001 22.3759 35.2514 22.3144C35.1027 22.2529 34.9756 22.1487 34.8861 22.0149C34.7966 21.8811 34.7488 21.7238 34.7488 21.5629L34.5488 21.563L34.7488 21.5631C34.7489 21.3473 34.8346 21.1403 34.9872 20.9876C35.1398 20.8349 35.3467 20.749 35.5626 20.7488L35.5623 20.5488L35.5623 20.7488Z" fill="white" stroke="white" stroke-width="0.4"/>
</svg>
