<svg width="44" height="38" viewBox="0 0 44 38" fill="none" xmlns="http://www.w3.org/2000/svg">
<path d="M34.8747 27.4883V28.9897C34.845 28.9669 34.8158 28.9431 34.7881 28.9168C34.5982 28.7355 34.494 28.4943 34.494 28.2376C34.494 27.9337 34.6435 27.6628 34.8747 27.4883ZM36.0848 30.5573V32.0588C36.3159 31.8847 36.465 31.6139 36.465 31.3095C36.465 31.0533 36.3607 30.8121 36.1709 30.6303C36.1437 30.604 36.1145 30.5802 36.0848 30.5573ZM4.81671 20.2853H8.33016C8.66454 20.2853 8.93546 20.0237 8.93546 19.7009V16.3085C8.93546 15.9856 8.66454 15.7241 8.33016 15.7241H4.81671C4.48234 15.7241 4.21141 15.9856 4.21141 16.3085V19.7009C4.21141 20.0237 4.48234 20.2853 4.81671 20.2853ZM26.0772 11.118H22.5638C22.2294 11.118 21.9585 11.3796 21.9585 11.7025V15.0949C21.9585 15.4177 22.2294 15.6793 22.5638 15.6793H26.0772C26.4116 15.6793 26.6825 15.4177 26.6825 15.0949V11.7025C26.6825 11.3796 26.4116 11.118 26.0772 11.118ZM19.4894 11.118H15.976C15.6416 11.118 15.3707 11.3796 15.3707 11.7025V15.0949C15.3707 15.4177 15.6416 15.6793 15.976 15.6793H19.4894C19.8238 15.6793 20.0947 15.4177 20.0947 15.0949V11.7025C20.0942 11.3796 19.8233 11.118 19.4894 11.118ZM19.4894 5.1044H15.976C15.6416 5.1044 15.3707 5.36599 15.3707 5.68884V9.08124C15.3707 9.40409 15.6416 9.66568 15.976 9.66568H19.4894C19.8238 9.66568 20.0947 9.40409 20.0947 9.08124V5.68884C20.0942 5.36599 19.8233 5.1044 19.4894 5.1044ZM26.0772 5.1044H22.5638C22.2294 5.1044 21.9585 5.36599 21.9585 5.68884V9.08124C21.9585 9.40409 22.2294 9.66568 22.5638 9.66568H26.0772C26.4116 9.66568 26.6825 9.40409 26.6825 9.08124V5.68884C26.6825 5.36599 26.4116 5.1044 26.0772 5.1044ZM4.81671 27.1474H8.33016C8.66454 27.1474 8.93546 26.8859 8.93546 26.563V23.1706C8.93546 22.8477 8.66454 22.5862 8.33016 22.5862H4.81671C4.48234 22.5862 4.21141 22.8477 4.21141 23.1706V26.563C4.21141 26.8859 4.48234 27.1474 4.81671 27.1474ZM37.8418 19.7014V16.309C37.8418 15.9861 37.5708 15.7245 37.2365 15.7245H33.723C33.3886 15.7245 33.1177 15.9861 33.1177 16.309V19.7014C33.1177 20.0242 33.3886 20.2858 33.723 20.2858H37.2365C37.5708 20.2853 37.8418 20.0237 37.8418 19.7014ZM41.7984 29.7735C41.7984 33.1377 38.9637 35.8747 35.4795 35.8747C31.9952 35.8747 29.1611 33.1377 29.1611 29.7735C29.1611 26.4093 31.9957 23.6729 35.4795 23.6729C38.9637 23.6729 41.7984 26.4098 41.7984 29.7735ZM37.6756 31.3095C37.6756 30.7392 37.4439 30.2034 37.0234 29.8008C36.7565 29.545 36.4348 29.3646 36.0848 29.2688V27.4907C36.1185 27.5165 36.1513 27.5432 36.1825 27.5734C36.3678 27.7543 36.468 27.9876 36.4655 28.2303C36.4615 28.5531 36.7294 28.8176 37.0637 28.8215C37.0663 28.8215 37.0688 28.8215 37.0708 28.8215C37.4016 28.8215 37.6721 28.5643 37.6756 28.2439C37.6821 27.6867 37.4575 27.1567 37.0431 26.7517C36.7717 26.4867 36.4428 26.299 36.0848 26.1998V25.8818C36.0848 25.5589 35.8139 25.2974 35.4795 25.2974C35.1451 25.2974 34.8742 25.5589 34.8742 25.8818V26.1998C33.9572 26.4541 33.2834 27.2709 33.2834 28.2371C33.2834 28.8074 33.515 29.3432 33.9355 29.7458C34.2024 30.0016 34.5242 30.182 34.8742 30.2778V32.0559C34.8404 32.0301 34.8077 32.0034 34.7765 31.9732C34.5912 31.7924 34.491 31.559 34.4935 31.3159C34.4975 30.993 34.2296 30.7285 33.8952 30.7246C33.8927 30.7246 33.8902 30.7246 33.8882 30.7246C33.5573 30.7246 33.2869 30.9818 33.2834 31.3022C33.2768 31.8595 33.5014 32.3894 33.9159 32.7945C34.1873 33.0595 34.5161 33.2471 34.8742 33.3463V33.6643C34.8742 33.9872 35.1451 34.2488 35.4795 34.2488C35.8139 34.2488 36.0848 33.9872 36.0848 33.6643V33.3463C37.0018 33.0925 37.6756 32.2757 37.6756 31.3095ZM44 29.7735C44 34.3095 40.1778 38 35.48 38C31.3894 38 27.9631 35.2018 27.1458 31.4841H1.46339C1.12902 31.4841 0.858094 31.2225 0.858094 30.8996V12.5529C0.379697 12.5213 0 12.1362 0 11.6665V9.78626C0 9.29566 0.413436 8.89647 0.921041 8.89647H11.0787V3.6501C10.6305 3.59029 10.2835 3.21881 10.2835 2.77003V0.889793C10.2835 0.399191 10.697 0 11.2051 0H30.8481C31.3562 0 31.7696 0.399191 31.7696 0.889793V2.77003C31.7696 3.21881 31.4232 3.59029 30.9745 3.6501V8.89647H41.1326C41.6407 8.89647 42.0537 9.29566 42.0537 9.78626V11.6665C42.0537 12.1362 41.674 12.5213 41.1956 12.5529V23.6782C42.9168 25.1845 44 27.3589 44 29.7735ZM11.0787 12.5558H2.06819V30.3162H11.0787V12.5558ZM30.9745 22.7947C32.2823 22.0046 33.8267 21.5471 35.48 21.5471C37.1332 21.5471 38.6777 22.0046 39.9855 22.7947V12.5558H30.9745V22.7947ZM26.9595 29.7735C26.9595 27.3589 28.0427 25.1841 29.7639 23.6777V3.65933H12.2888V30.3162H15.9095V20.2605C15.9095 19.9377 16.1804 19.6761 16.5148 19.6761H25.5379C25.8723 19.6761 26.1432 19.9377 26.1432 20.2605V30.3162H26.9786C26.9665 30.1368 26.9595 29.9559 26.9595 29.7735ZM42.7894 29.7735C42.7894 25.8818 39.5101 22.7155 35.4795 22.7155C31.4489 22.7155 28.1696 25.8818 28.1696 29.7735C28.1696 33.6653 31.4489 36.8316 35.4795 36.8316C39.5101 36.8316 42.7894 33.6658 42.7894 29.7735Z" fill="white"/>
</svg>
