<svg width="43" height="48" viewBox="0 0 43 48" fill="none" xmlns="http://www.w3.org/2000/svg">
<path fillRule="evenodd" clipRule="evenodd" d="M29.9501 15.4389C22.4178 7.8313 9.48629 13.2473 9.48629 24C9.48629 34.7533 22.4189 40.1681 29.9507 32.5611C34.6316 27.8334 34.6316 20.1666 29.9501 15.4389ZM6.86952 11.9809C3.93914 14.2877 1.54715 17.3293 0 20.9257C1.49561 10.4072 10.2029 2.49563 20.6239 2.07591C20.9868 2.06151 21.2714 1.75973 21.2714 1.39593H21.2736V0L25.784 4.37828L21.2511 9.11815C21.2401 8.23607 21.4304 7.0954 20.5537 7.10703C15.528 7.17957 10.7308 8.94151 6.86952 11.9809ZM36.0779 36.0191C39.0082 33.7128 41.4002 30.6707 42.9474 27.0743C41.4518 37.5928 32.7445 45.5044 22.3235 45.9241C21.9605 45.9385 21.676 46.2403 21.676 46.6041H21.6738V48L17.1634 43.6217L21.6963 38.8819C21.7072 39.7639 21.517 40.9046 22.3936 40.893C27.4194 40.8204 32.216 39.0585 36.0779 36.0191ZM22.1497 32.3391C22.1497 33.2378 20.7977 33.2378 20.7977 32.3391V31.1929C18.9397 30.8656 17.5455 29.2294 17.5455 27.2847C17.5455 26.386 18.8975 26.386 18.8975 27.2847C18.8975 29.6003 21.6793 30.7565 23.2955 29.1247C23.7615 28.654 24.0499 28.0034 24.0499 27.2847C24.0499 24.2569 17.5455 24.9363 17.5455 20.7159C17.5455 19.6793 18.0071 18.5397 18.6974 17.9124L18.6963 17.9113C19.256 17.3459 19.9841 16.9506 20.7982 16.8077C20.7982 16.0452 20.6146 14.9793 21.4742 14.9793C22.3339 14.9793 22.1502 16.0463 22.1502 16.8088C24.0214 17.1261 25.4024 18.7225 25.4024 20.6943C25.4024 21.6212 24.0504 21.6229 24.0504 20.6943C24.0504 18.3011 21.2171 17.2961 19.6524 18.8764L19.6513 18.8753C19.1864 19.346 18.898 19.9966 18.898 20.7164C18.898 23.7442 25.4024 23.0648 25.4024 27.2852C25.4024 29.2282 24.0115 30.8673 22.1502 31.194L22.1497 32.3391Z" fill="white"/>
</svg>
