<svg width="48" height="39" viewBox="0 0 48 39" fill="none" xmlns="http://www.w3.org/2000/svg">
<path fillRule="evenodd" clipRule="evenodd" d="M3.42838 19.1989V20.9137C3.42838 21.8604 2.66077 22.6284 1.71419 22.6284C0.767612 22.6284 0 21.8604 0 20.9137V12.3416C0 10.978 0.541333 9.67079 1.50566 8.70528C2.47147 7.74133 3.77891 7.19902 5.14257 7.19902H24.0002C24.9468 7.19902 25.7144 7.96703 25.7144 8.91373C25.7144 9.86044 24.9468 10.6284 24.0002 10.6284H5.14257C4.68851 10.6284 4.2522 10.8087 3.93125 11.13C3.60882 11.4513 3.42838 11.8871 3.42838 12.3432V15.7711H27.4286C28.3752 15.7711 29.1428 16.5391 29.1428 17.4858C29.1428 18.4309 28.3752 19.2005 27.4286 19.1989H3.42838ZM0 29.4857C0 28.539 0.767612 27.771 1.71419 27.771C2.66077 27.771 3.42838 28.539 3.42838 29.4857V32.9152C3.42838 33.3697 3.60882 33.8054 3.93125 34.1267C4.2522 34.4481 4.68851 34.6283 5.14257 34.6283H36.0011C36.4551 34.6283 36.8915 34.4481 37.2124 34.1267C37.5348 33.8054 37.7153 33.3697 37.7153 32.9136V22.6284C37.7153 21.6817 38.4829 20.9137 39.4295 20.9137C40.376 20.9137 41.1437 21.6817 41.1437 22.6284V32.9152C41.1437 34.2788 40.6023 35.586 39.638 36.5515C38.6722 37.5154 37.3647 38.0578 36.0011 38.0578H5.14257C3.77891 38.0578 2.47147 37.5154 1.50566 36.5515C0.541333 35.586 0 34.2788 0 32.9152V29.4857ZM38.1442 0C43.5841 0 48.0005 4.4169 48.0005 9.85731C48.0005 15.2977 43.5841 19.7146 38.1442 19.7146C32.7029 19.7146 28.2865 15.2977 28.2865 9.85731C28.2865 4.4169 32.7029 0 38.1442 0ZM38.1442 3.42787C34.596 3.42787 31.7148 6.30874 31.7148 9.85731C31.7148 13.4043 34.596 16.2852 38.1442 16.2852C41.6924 16.2852 44.572 13.4043 44.572 9.85731C44.572 6.30874 41.6924 3.42787 38.1442 3.42787ZM33.5769 11.1974C32.9069 10.5281 32.9069 9.44195 33.5769 8.77268C34.2455 8.1034 35.3326 8.1034 36.0011 8.77268L37.1458 9.91844L40.2858 6.77737C40.9558 6.1081 42.0414 6.1081 42.7114 6.77737C43.3799 7.44665 43.3799 8.53287 42.7114 9.20214L38.3587 13.5548C37.6886 14.224 36.603 14.224 35.9345 13.5548L33.5769 11.1974ZM32.5727 29.4857C33.5178 29.4857 34.2869 30.2537 34.2869 31.2004C34.2869 32.1456 33.5178 32.9152 32.5727 32.9136H30.8585C29.9119 32.9152 29.1428 32.1456 29.1428 31.2004C29.1428 30.2537 29.9119 29.4857 30.8585 29.4857H32.5727Z" fill="white"/>
</svg>
