<svg width="49" height="35" viewBox="0 0 49 35" fill="none" xmlns="http://www.w3.org/2000/svg">
<path d="M42.255 0C45.8422 0 48.7753 2.80028 48.9877 6.33409L49 6.74498V27.6056C49 31.1927 46.1997 34.1259 42.6659 34.3382L42.255 34.3505H6.74498C3.1578 34.3505 0.224659 31.5502 0.0123101 28.0164L0 27.6056V6.74498C0 3.1578 2.80028 0.224658 6.33409 0.0123095L6.74498 0H42.255ZM45.3189 14.6525H3.67662L3.67908 27.6056C3.67908 29.193 4.88551 30.4986 6.43151 30.6556L6.74498 30.6714H42.255C43.8424 30.6714 45.1481 29.465 45.3051 27.919L45.3209 27.6056L45.3189 14.6525ZM39.8367 23.25C40.8526 23.25 41.6762 24.0736 41.6762 25.0896C41.6762 26.0209 40.9842 26.7905 40.0863 26.9123L39.8367 26.9291H33.7049C32.6889 26.9291 31.8654 26.1055 31.8654 25.0896C31.8654 24.1583 32.5574 23.3886 33.4553 23.2668L33.7049 23.25H39.8367ZM42.255 3.67908H6.74498C5.15755 3.67908 3.85191 4.88551 3.69491 6.43151L3.67908 6.74498L3.67662 10.9735H45.3189L45.3209 6.74498C45.3209 5.15755 44.1145 3.85191 42.5685 3.69491L42.255 3.67908Z" fill="white"/>
</svg>
