<svg width="68" height="54" viewBox="0 0 68 54" fill="none" xmlns="http://www.w3.org/2000/svg">
<path d="M11.8522 4.792C13.4949 2.56266 15.3135 1.33066 17.3082 1.09599C19.3029 0.861327 21.0042 1.27199 22.4122 2.328C23.9375 3.26666 24.7589 4.73333 24.8762 6.72799C25.1109 8.72266 24.2895 10.8347 22.4122 13.064C19.7135 16.232 17.8949 19.4 16.9562 22.568C16.0175 25.736 15.5482 28.552 15.5482 31.016L14.8442 23.976C19.5375 23.976 23.3509 25.3253 26.2842 28.024C29.2175 30.7227 30.6842 34.36 30.6842 38.936C30.6842 43.2773 29.3349 46.856 26.6362 49.672C23.9375 52.3707 20.2415 53.72 15.5482 53.72C10.7375 53.72 6.98285 52.136 4.28419 48.968C1.58552 45.6827 0.236188 41.1653 0.236188 35.416C0.236188 32.3653 0.529521 29.256 1.11619 26.088C1.70285 22.8027 2.81752 19.4587 4.46019 16.056C6.22019 12.536 8.68419 8.78133 11.8522 4.792ZM49.1642 4.792C50.8069 2.56266 52.6255 1.33066 54.6202 1.09599C56.6149 0.861327 58.3162 1.27199 59.7242 2.328C61.2495 3.26666 62.0709 4.73333 62.1882 6.72799C62.4229 8.72266 61.6015 10.8347 59.7242 13.064C57.0255 16.232 55.2069 19.4 54.2682 22.568C53.3295 25.736 52.8602 28.552 52.8602 31.016L52.1562 23.976C56.8495 23.976 60.6629 25.3253 63.5962 28.024C66.5295 30.7227 67.9962 34.36 67.9962 38.936C67.9962 43.2773 66.6469 46.856 63.9482 49.672C61.2495 52.3707 57.5535 53.72 52.8602 53.72C48.0495 53.72 44.2949 52.136 41.5962 48.968C38.8975 45.6827 37.5482 41.1653 37.5482 35.416C37.5482 32.3653 37.8415 29.256 38.4282 26.088C39.0149 22.8027 40.1295 19.4587 41.7722 16.056C43.5322 12.536 45.9962 8.78133 49.1642 4.792Z" fill="white"/>
</svg>
