<svg width="24" height="35" viewBox="0 0 24 35" fill="none" xmlns="http://www.w3.org/2000/svg">
<path d="M7 22V35L12 30.6672L17 35V22H7Z" fill="#CCCCCC"/>
<path fillRule="evenodd" clipRule="evenodd" d="M12 30.3339L14 32V22H10V32L12 30.3339Z" fill="#1549FF"/>
<path d="M12 24C18.6274 24 24 18.6274 24 12C24 5.37258 18.6274 0 12 0C5.37258 0 0 5.37258 0 12C0 18.6274 5.37258 24 12 24Z" fill="#1549FF"/>
<path d="M18.9622 10.5338C18.8755 10.2873 18.6467 10.1045 18.3674 10.0565L14.553 9.40091L12.6785 6.36164C12.5417 6.13855 12.2815 6 11.9999 6C11.7188 6 11.458 6.13855 11.3213 6.36164L9.44726 9.40091L5.6329 10.0565C5.35355 10.1045 5.12483 10.2873 5.03753 10.5338C4.95023 10.7793 5.01774 11.0493 5.21387 11.2364L7.86367 13.7667L7.38294 17.2053C7.34686 17.46 7.46733 17.7125 7.69489 17.8636C7.83049 17.9542 7.99229 18 8.15466 18C8.26524 18 8.37698 17.9787 8.48116 17.9345L12.0004 16.458L15.5191 17.9345C15.6239 17.9787 15.7351 18 15.8462 18C16.0086 18 16.1698 17.9542 16.3054 17.8636C16.5341 17.7125 16.6534 17.46 16.6179 17.2053L16.1372 13.7667L18.787 11.2364C18.982 11.0493 19.0501 10.7793 18.9622 10.5338Z" fill="white"/>
</svg>
