<svg width="48" height="40" viewBox="0 0 48 40" fill="none" xmlns="http://www.w3.org/2000/svg">
<path d="M30.0988 34.8161V3.44708L17.8336 7.62798V34.8161H15.367V5.86436L32.5839 0V34.8161H30.0988ZM12.2837 13.0175L3.32992 16.4523V34.8161H5.79652V18.1666L13.1963 15.3423L12.2837 13.0175ZM10.9147 31.5171V21.2621H8.44813V31.5232L10.9147 31.5171ZM43.4863 34.81V16.4523L34.5263 13.0175L33.6445 15.3115L41.0443 18.1357V34.7853L43.4863 34.81ZM38.3434 31.5171V21.2621H35.8768V31.5232L38.3434 31.5171ZM0 39.256H48.0002V36.7894H0V39.256ZM27.33 9.14494H24.8634V14.5221H27.33V9.14494ZM23.0504 9.14494H20.5838V14.5221H23.0504V9.14494ZM27.33 17.4081H24.8634V22.7791H27.33V17.4081ZM23.0504 17.4081H20.5838V22.7791H23.0504V17.4081ZM24.8634 31.0669H27.33V25.6897H24.8634V31.0669ZM20.5838 31.0669H23.0504V25.6897H20.5838V31.0669Z" fill="white"/>
</svg>
