<svg width="34" height="41" viewBox="0 0 34 41" fill="none" xmlns="http://www.w3.org/2000/svg">
<path d="M21.143 18.2794H12.8575C10.9953 18.2794 9.4856 19.7891 9.4856 21.6513V26.3237C9.4856 28.3722 11.1464 30.033 13.1949 30.033H20.8056C22.8541 30.033 24.5149 28.3722 24.5149 26.3237V21.6513C24.5142 19.7891 23.0052 18.2794 21.143 18.2794ZM22.7476 26.4943C22.7476 27.581 21.8662 28.4624 20.7795 28.4624H13.221C12.1343 28.4624 11.2529 27.581 11.2529 26.4943V21.818C11.2529 20.7313 12.1343 19.85 13.221 19.85H20.7795C21.8662 19.85 22.7476 20.7313 22.7476 21.818V26.4943Z" fill="white"/>
<path d="M12.8575 17.6772H13.9894V15.6974C13.9894 14.0373 15.3402 12.6871 16.9997 12.6871C18.6598 12.6871 20.01 14.0379 20.01 15.6974V17.6772H21.1418C21.4654 17.6772 21.7799 17.7171 22.0814 17.7903V15.6974C22.0814 12.895 19.8014 10.6157 16.9997 10.6157C14.1979 10.6157 11.918 12.8956 11.918 15.6974V17.7903C12.22 17.7171 12.5345 17.6772 12.8575 17.6772Z" fill="white"/>
<path d="M20.2401 20.7843H13.7612C13.036 20.7843 12.4482 21.3721 12.4482 22.0972V26.2151C12.4482 26.9403 13.036 27.5281 13.7612 27.5281H20.2401C20.9652 27.5281 21.5531 26.9403 21.5531 26.2151V22.0972C21.5524 21.3721 20.9646 20.7843 20.2401 20.7843ZM17.7666 24.3942V25.5567C17.7666 25.9785 17.422 26.323 17.0003 26.323C16.5786 26.323 16.2334 25.9785 16.2334 25.5567V24.3942C15.896 24.1542 15.675 23.76 15.675 23.314C15.675 22.5824 16.268 21.9887 17.0003 21.9887C17.732 21.9887 18.3257 22.5824 18.3257 23.314C18.3257 23.76 18.1047 24.1542 17.7666 24.3942Z" fill="white"/>
<path d="M32.2725 6.97245L18.3103 0.298644C17.4773 -0.0995481 16.522 -0.0995481 15.6897 0.298644L1.72746 6.97245C0.678039 7.47461 0 8.55018 0 9.71338C0 19.2046 1.79546 27.156 5.19219 32.7072C8.279 37.7536 12.5826 40.6481 17 40.6481C21.4167 40.6481 25.721 37.7536 28.8085 32.7072C32.2045 27.156 34 19.2046 34 9.71338C34 8.55018 33.322 7.47461 32.2725 6.97245ZM26.0793 31.0373C23.5862 35.1114 20.2771 37.4482 17 37.4482C13.7229 37.4482 10.4138 35.1114 7.92135 31.0373C4.84435 26.0085 3.21235 18.6711 3.19992 9.81538L17 3.21872L30.8001 9.81538C30.7877 18.6711 29.1557 26.0085 26.0793 31.0373Z" fill="white"/>
</svg>
