<svg width="46" height="43" viewBox="0 0 46 43" fill="none" xmlns="http://www.w3.org/2000/svg">
<path d="M5.27591 28.8087H6.36895C7.09655 35.4504 12.1947 40.7894 18.7315 41.9381C19.1776 42.5788 19.9184 43 20.7612 43H25.2404C26.6034 43 27.7096 41.9004 27.7096 40.5419C27.7096 39.1834 26.6034 38.0838 25.2404 38.0838H20.7612C20.1439 38.0838 19.5859 38.3182 19.1529 38.6902C13.7025 37.6594 9.56742 32.8907 9.56742 27.17V16.6494C9.56742 9.27515 15.5923 3.27744 23 3.27744C30.4077 3.27744 36.4326 9.27679 36.4326 16.6494V27.17C36.4326 28.0745 37.1684 28.8087 38.0787 28.8087H40.7224C43.6328 28.8087 46 26.4522 46 23.555V20.2644C46 17.3671 43.6328 15.0107 40.7224 15.0107H39.6409C38.8113 6.59585 31.667 0 23 0C14.333 0 7.18873 6.59585 6.35907 15.0107H5.27755C2.36716 15.0107 0 17.3671 0 20.2644V23.555C0 26.4522 2.36716 28.8087 5.27755 28.8087H5.27591ZM39.7249 18.2881H40.7224C41.8171 18.2881 42.7077 19.1747 42.7077 20.2644V23.555C42.7077 24.6447 41.8171 25.5312 40.7224 25.5312H39.7249V18.2881ZM3.29065 20.2644C3.29065 19.1747 4.18122 18.2881 5.27591 18.2881H6.27348V25.5312H5.27591C4.18122 25.5312 3.29065 24.6447 3.29065 23.555V20.2644Z" fill="white"/>
</svg>
