<svg width="35" height="41" viewBox="0 0 35 41" fill="none" xmlns="http://www.w3.org/2000/svg">
<path d="M34.6667 36.3H30.3333V40.3333H26V36.3H21.6667V32.2667H26V28.2333H30.3333V32.2667H34.6667V36.3ZM8.66667 8.06667C8.66667 6.47123 9.17496 4.91163 10.1273 3.58507C11.0796 2.25851 12.4331 1.22459 14.0167 0.614042C15.6004 0.00349513 17.3429 -0.156252 19.0241 0.155002C20.7053 0.466256 22.2495 1.23453 23.4616 2.36268C24.6736 3.49082 25.4991 4.92816 25.8335 6.49294C26.1679 8.05772 25.9963 9.67966 25.3403 11.1537C24.6843 12.6276 23.5735 13.8875 22.1483 14.7739C20.723 15.6602 19.0474 16.1333 17.3333 16.1333C15.0355 16.131 12.8326 15.2804 11.2078 13.7681C9.58302 12.2558 8.66913 10.2054 8.66667 8.06667ZM13 8.06667C13 8.86439 13.2541 9.64419 13.7303 10.3075C14.2065 10.9707 14.8832 11.4877 15.675 11.793C16.4669 12.0983 17.3381 12.1781 18.1787 12.0225C19.0193 11.8669 19.7914 11.4827 20.3975 10.9187C21.0035 10.3546 21.4162 9.63592 21.5834 8.85353C21.7506 8.07114 21.6648 7.26018 21.3368 6.52318C21.0088 5.78618 20.4534 5.15626 19.7408 4.71308C19.0282 4.26989 18.1904 4.03334 17.3333 4.03334C16.1845 4.03456 15.083 4.4599 14.2707 5.21603C13.4583 5.97216 13.0013 6.99734 13 8.06667ZM17.3333 24.2C20.0634 24.3805 22.7312 25.0445 25.1938 26.1562L26.8166 22.4163C23.8426 21.1 20.6214 20.3359 17.3333 20.1667C13.9135 20.2578 10.5704 21.1318 7.59978 22.7116C4.62917 24.2913 2.12255 26.528 0.3016 29.2239C0.104115 29.5346 -5.05269e-05 29.889 1.83863e-08 30.25V38.3167C1.83863e-08 38.8515 0.228274 39.3645 0.634602 39.7427C1.04093 40.1209 1.59203 40.3333 2.16667 40.3333H17.3333V36.3H4.33333V30.8526C5.78746 28.8721 7.72193 27.2379 9.98032 26.0822C12.2387 24.9265 14.7576 24.2817 17.3333 24.2Z" fill="white"/>
</svg>
