<svg width="170" height="60" viewBox="0 0 170 60" fill="none" xmlns="http://www.w3.org/2000/svg">
<path d="M17.9409 31.9514C16.7516 32.1006 14.6696 32.5467 13.4801 33.5894C9.91147 36.716 11.9932 42.2245 19.2794 42.2245C23.4426 42.2245 27.6061 39.5443 30.8774 35.3755C26.1193 33.1423 22.2531 31.5043 17.9409 31.9514Z" fill="#2BA6DF"/>
<path d="M44.3185 35.9288C50.904 38.0995 52.3673 38.2443 52.3673 38.2443V15.0905C52.3673 11.1835 49.1477 8 45.0503 8H14.3173C10.3659 8 7 11.1837 7 15.091V45.4809C7 49.388 10.2196 52.5714 14.3173 52.5714H45.0503C49.0014 52.5714 52.3673 49.3877 52.3673 45.4804V45.1913C52.3673 45.1913 40.6599 40.4159 34.6596 37.5217C30.7085 42.297 25.5863 45.3357 20.1715 45.3357C11.0982 45.3357 8.02492 37.5217 12.4153 32.4567C13.2931 31.299 14.9031 30.286 17.3909 29.7073C21.196 28.8388 27.3426 30.286 33.05 32.1675C34.0741 30.286 34.9523 28.2602 35.5378 26.0895H17.83V24.3529H26.9034V20.88H15.7812V19.1435H26.9034V14.6576C26.9034 14.6576 26.9034 13.934 27.6349 13.934H32.0255V19.2884H43.0014V20.8805H32.0255V24.064H40.9525C40.0747 27.5369 38.7574 30.7208 37.1474 33.4699C40.0744 34.4829 42.5622 35.3514 44.3185 35.9298V35.9288Z" fill="#2BA6DF"/>
<path d="M72.405 18.3469L82.1257 39.174H76.9704L74.3193 33.6389H66.3654L63.7143 39.174H60.3267L70.1951 18.9295C70.1951 18.9295 70.4891 18.3469 71.0787 18.3469H72.405ZM67.2495 31.7457H73.4358L70.3424 25.1916L67.2495 31.7457ZM88.7118 39.3393H83.9985V19.5318C83.9985 18.9494 84.2931 18.6576 85.0294 18.6576H88.7118V39.3393ZM97.5489 39.2039H92.836V24.2027C92.836 23.6201 93.13 23.3285 93.8663 23.3285H97.5489V39.2039ZM103.312 23.64H106.406V25.0965C106.995 24.6595 107.584 24.2223 108.32 24.0769C109.057 23.7859 109.793 23.64 110.824 23.64C111.855 23.64 112.739 23.7859 113.476 24.2223C114.359 24.6595 114.948 25.0965 115.537 25.8247C116.126 26.5529 116.568 27.2812 116.863 28.1553C117.157 29.0292 117.305 29.9028 117.305 30.9219C117.305 32.2327 117.157 33.3981 116.716 34.4174C116.274 35.4367 115.832 36.4562 115.096 37.1845C114.359 37.9125 113.623 38.6407 112.592 39.0779C111.561 39.5146 110.53 39.66 109.351 39.66H107.731C107.289 39.66 106.847 39.5141 106.406 39.3689V44.6122H101.692V25.5329C101.545 23.64 102.281 23.64 103.312 23.64ZM106.405 35C106.405 35.4372 106.405 35.7282 106.553 36.0195C106.7 36.3106 106.848 36.6016 107.142 36.8937C107.436 37.1847 107.731 37.3304 108.026 37.476C108.32 37.6219 108.762 37.6219 109.204 37.6219C109.646 37.6219 109.94 37.476 110.382 37.1847C110.677 36.8937 111.119 36.6021 111.267 36.0195C111.414 35.4372 111.708 35 111.855 34.2718C112.003 33.5435 112.15 32.9609 112.15 32.087C112.15 31.0678 112.15 30.1939 112.003 29.4656C111.855 28.7374 111.708 28.1548 111.413 27.5722C111.119 27.1353 110.825 26.6981 110.53 26.407C110.235 26.1158 109.793 25.9699 109.351 25.9699C109.057 25.9699 108.762 25.9699 108.467 26.1158C108.173 26.2616 107.879 26.407 107.731 26.5527C107.436 26.6983 107.289 26.9899 106.994 27.1353C106.7 27.4263 106.552 27.5722 106.405 27.8635V35ZM126.292 23.64C127.47 23.64 128.354 23.7859 129.238 23.9313C129.974 24.0769 130.711 24.3682 131.3 24.8052C131.889 25.2424 132.183 25.6791 132.478 26.116C132.772 26.6986 132.92 27.2812 132.92 27.8635V39.3692H128.207V38.2037C127.913 38.4953 127.618 38.6409 127.47 38.7861L126.586 39.2235C126.292 39.3692 125.997 39.5143 125.556 39.5143C125.114 39.6602 124.672 39.6602 124.23 39.6602C123.494 39.6602 122.905 39.5143 122.315 39.3692C121.727 39.2235 121.285 38.932 120.842 38.4953C120.4 38.2037 120.106 37.767 119.958 37.1845C119.811 36.7473 119.664 36.1652 119.664 35.5823C119.664 34.9993 119.812 34.4167 119.958 33.98C120.106 33.5426 120.547 33.1058 120.842 32.6694C121.137 32.232 121.726 31.9412 122.168 31.6496C122.757 31.3586 123.199 31.0675 123.936 30.7755C124.524 30.4847 125.113 30.3388 125.85 30.0477C126.439 29.9019 127.175 29.6106 127.765 29.4652L128.354 29.3195V27.7171C128.354 27.2802 128.354 26.8433 128.206 26.4066L127.764 25.5324C127.617 25.3868 127.323 25.0955 127.176 25.0955C126.881 24.9498 126.587 24.9498 126.292 24.9498C126.292 24.9498 123.788 24.9498 121.578 26.8433L120.547 25.2409C120.106 25.5332 122.757 23.64 126.292 23.64ZM127.912 31.3591C127.47 31.5049 127.028 31.796 126.587 32.0873L125.261 32.9614C124.819 33.2525 124.525 33.5438 124.378 33.9807C124.083 34.272 124.083 34.7089 124.083 35.0002C124.083 35.2913 124.083 35.5828 124.23 35.8744C124.378 36.1654 124.378 36.3113 124.524 36.6026C124.672 36.8937 124.819 36.8937 124.967 37.0395C125.114 37.1854 125.261 37.1854 125.555 37.1854C125.997 37.1854 126.292 37.0395 126.734 36.8941L128.059 36.0203V31.3595L127.912 31.3591ZM139.338 44.4668H136.244L136.097 41.6998C136.097 41.6998 139.927 41.8457 141.105 40.3892C141.547 39.8066 141.841 38.2045 141.841 38.2045L134.182 23.6402H139.337L144.198 33.1073L148.47 23.6402H151.857L144.051 40.8264C143.756 41.409 142.578 44.4671 139.338 44.4668Z" fill="white"/>
<path d="M96.1426 20.7347C97.4614 20.7347 98.5304 19.8439 98.5304 18.7449C98.5304 17.646 97.4614 16.7551 96.1426 16.7551C94.8239 16.7551 93.7549 17.646 93.7549 18.7449C93.7549 19.8439 94.8239 20.7347 96.1426 20.7347Z" fill="#2BA6DF"/>
<path d="M155.939 11.4648H154.245V11.1837H157.941V11.4648H156.247V15.8187H155.785V11.4648H155.939ZM158.689 11.1837H159.305L160.383 13.8523L160.845 14.8355C160.999 14.5546 161.152 14.1332 161.306 13.8523L162.384 11.1837H163V15.9592H162.385V11.7455L161.923 12.8694L160.845 15.6785H160.538L159.46 12.8694L158.997 11.7455V15.9592H158.535V11.1837H158.689Z" fill="white"/>
</svg>
