<svg width="170" height="60" viewBox="0 0 170 60" fill="none" xmlns="http://www.w3.org/2000/svg">
<path d="M33.58 33.005V28.735H38.9C39.5767 28.735 40.195 28.595 40.755 28.315C41.315 28.035 41.7583 27.6267 42.085 27.09C42.4117 26.5533 42.575 25.9 42.575 25.13C42.575 24.3833 42.4117 23.7417 42.085 23.205C41.7583 22.6683 41.315 22.26 40.755 21.98C40.195 21.7 39.5767 21.56 38.9 21.56H33.58V17.29H39.705C41.2683 17.29 42.68 17.605 43.94 18.235C45.2 18.865 46.1917 19.775 46.915 20.965C47.6617 22.1317 48.035 23.52 48.035 25.13C48.035 26.74 47.6617 28.14 46.915 29.33C46.1917 30.4967 45.2 31.4067 43.94 32.06C42.68 32.69 41.2683 33.005 39.705 33.005H33.58ZM29.38 42V17.29H34.875V42H29.38ZM57.2548 42.35C55.6914 42.35 54.2914 41.965 53.0548 41.195C51.8414 40.425 50.8731 39.375 50.1498 38.045C49.4498 36.715 49.0998 35.1983 49.0998 33.495C49.0998 31.7917 49.4498 30.275 50.1498 28.945C50.8731 27.615 51.8414 26.565 53.0548 25.795C54.2914 25.025 55.6914 24.64 57.2548 24.64C58.3981 24.64 59.4248 24.8617 60.3348 25.305C61.2681 25.7483 62.0264 26.3667 62.6098 27.16C63.1931 27.93 63.5198 28.8167 63.5898 29.82V37.17C63.5198 38.1733 63.1931 39.0717 62.6098 39.865C62.0498 40.635 61.3031 41.2417 60.3698 41.685C59.4364 42.1283 58.3981 42.35 57.2548 42.35ZM58.3398 37.52C59.4831 37.52 60.4048 37.1467 61.1048 36.4C61.8048 35.63 62.1548 34.6617 62.1548 33.495C62.1548 32.7017 61.9914 32.0017 61.6648 31.395C61.3614 30.7883 60.9181 30.3217 60.3348 29.995C59.7748 29.645 59.1214 29.47 58.3748 29.47C57.6281 29.47 56.9631 29.645 56.3798 29.995C55.8198 30.3217 55.3648 30.7883 55.0148 31.395C54.6881 32.0017 54.5248 32.7017 54.5248 33.495C54.5248 34.265 54.6881 34.9533 55.0148 35.56C55.3414 36.1667 55.7964 36.645 56.3798 36.995C56.9631 37.345 57.6164 37.52 58.3398 37.52ZM61.9448 42V37.415L62.7498 33.285L61.9448 29.155V24.99H67.1948V42H61.9448ZM76.2152 42.07L69.2152 24.99H74.9902L79.4352 38.535H77.3002L81.8502 24.99H87.6252L80.3452 42.07H76.2152ZM71.8402 49.175L76.9502 38.15L80.3452 42.07L77.3352 49.175H71.8402ZM97.4121 42.385C95.5687 42.385 93.9237 42.0117 92.4771 41.265C91.0537 40.495 89.9337 39.4333 89.1171 38.08C88.3004 36.7267 87.8921 35.1983 87.8921 33.495C87.8921 31.7917 88.2887 30.275 89.0821 28.945C89.8987 27.5917 90.9954 26.53 92.3721 25.76C93.7487 24.99 95.3004 24.605 97.0271 24.605C98.7071 24.605 100.189 24.9667 101.472 25.69C102.755 26.4133 103.759 27.4167 104.482 28.7C105.229 29.9833 105.602 31.4533 105.602 33.11C105.602 33.4133 105.579 33.74 105.532 34.09C105.509 34.4167 105.45 34.8017 105.357 35.245L90.6921 35.28V31.605L103.082 31.57L100.772 33.11C100.749 32.13 100.597 31.325 100.317 30.695C100.037 30.0417 99.6171 29.5517 99.0571 29.225C98.5204 28.875 97.8554 28.7 97.0621 28.7C96.2221 28.7 95.4871 28.8983 94.8571 29.295C94.2504 29.6683 93.7721 30.205 93.4221 30.905C93.0954 31.605 92.9321 32.4567 92.9321 33.46C92.9321 34.4633 93.1071 35.3267 93.4571 36.05C93.8304 36.75 94.3437 37.2983 94.9971 37.695C95.6737 38.0683 96.4671 38.255 97.3771 38.255C98.2171 38.255 98.9754 38.115 99.6521 37.835C100.329 37.5317 100.924 37.0883 101.437 36.505L104.377 39.445C103.537 40.425 102.522 41.16 101.332 41.65C100.142 42.14 98.8354 42.385 97.4121 42.385ZM116.587 42.385C114.744 42.385 113.099 42.0117 111.652 41.265C110.229 40.495 109.109 39.4333 108.292 38.08C107.475 36.7267 107.067 35.1983 107.067 33.495C107.067 31.7917 107.464 30.275 108.257 28.945C109.074 27.5917 110.17 26.53 111.547 25.76C112.924 24.99 114.475 24.605 116.202 24.605C117.882 24.605 119.364 24.9667 120.647 25.69C121.93 26.4133 122.934 27.4167 123.657 28.7C124.404 29.9833 124.777 31.4533 124.777 33.11C124.777 33.4133 124.754 33.74 124.707 34.09C124.684 34.4167 124.625 34.8017 124.532 35.245L109.867 35.28V31.605L122.257 31.57L119.947 33.11C119.924 32.13 119.772 31.325 119.492 30.695C119.212 30.0417 118.792 29.5517 118.232 29.225C117.695 28.875 117.03 28.7 116.237 28.7C115.397 28.7 114.662 28.8983 114.032 29.295C113.425 29.6683 112.947 30.205 112.597 30.905C112.27 31.605 112.107 32.4567 112.107 33.46C112.107 34.4633 112.282 35.3267 112.632 36.05C113.005 36.75 113.519 37.2983 114.172 37.695C114.849 38.0683 115.642 38.255 116.552 38.255C117.392 38.255 118.15 38.115 118.827 37.835C119.504 37.5317 120.099 37.0883 120.612 36.505L123.552 39.445C122.712 40.425 121.697 41.16 120.507 41.65C119.317 42.14 118.01 42.385 116.587 42.385ZM127.362 42V24.99H132.717V42H127.362ZM132.717 32.655L130.477 30.905C130.92 28.9217 131.667 27.3817 132.717 26.285C133.767 25.1883 135.225 24.64 137.092 24.64C137.908 24.64 138.62 24.7683 139.227 25.025C139.857 25.2583 140.405 25.6317 140.872 26.145L137.687 30.17C137.453 29.9133 137.162 29.715 136.812 29.575C136.462 29.435 136.065 29.365 135.622 29.365C134.735 29.365 134.023 29.645 133.487 30.205C132.973 30.7417 132.717 31.5583 132.717 32.655Z" fill="white"/>
</svg>
