<svg width="170" height="60" viewBox="0 0 170 60" fill="none" xmlns="http://www.w3.org/2000/svg">
<path d="M47.2384 16.4721C45.8139 15.4915 43.955 15 41.6617 15H32.7833C32.0803 15 31.6918 15.3521 31.6181 16.0553L28.0113 38.7244C27.9738 38.9471 28.0295 39.1507 28.1777 39.3358C28.3251 39.5214 28.5105 39.6136 28.7325 39.6136H32.9497C33.6893 39.6136 34.0959 39.2624 34.1705 38.558L35.1692 32.4466C35.2056 32.1504 35.3357 31.9096 35.5578 31.7241C35.7796 31.539 36.0571 31.4178 36.39 31.3624C36.723 31.3074 37.0369 31.2797 37.3334 31.2797C37.629 31.2797 37.9803 31.2984 38.3879 31.3352C38.7944 31.3722 39.0536 31.3902 39.1647 31.3902C42.3459 31.3902 44.8429 30.4927 46.6558 28.6957C48.4679 26.8994 49.375 24.4085 49.375 21.2224C49.375 19.0371 48.6623 17.4535 47.2384 16.4714V16.4721ZM42.6607 23.2789C42.4751 24.5756 41.9948 25.4271 41.218 25.8347C40.441 26.2428 39.3312 26.4456 37.8887 26.4456L36.0574 26.5013L37.001 20.556C37.0746 20.1489 37.3149 19.9451 37.7221 19.9451H38.7768C40.2558 19.9451 41.3292 20.1586 41.9951 20.5839C42.6607 21.0102 42.8827 21.9089 42.6607 23.2789Z" fill="white"/>
<path d="M141.289 15H137.247C136.846 15 136.609 15.2038 136.537 15.6112L132.986 38.7248L132.932 38.8358C132.932 39.022 133.005 39.197 133.151 39.3638C133.295 39.5301 133.478 39.6136 133.697 39.6136H137.302C137.993 39.6136 138.376 39.2624 138.449 38.5582L142 15.8335V15.7783C141.999 15.2598 141.762 15.0005 141.289 15.0005V15Z" fill="#009CDE"/>
<path d="M91.4773 24.1931C91.4773 24.0096 91.4019 23.8345 91.2524 23.6691C91.1018 23.5036 90.9327 23.4205 90.7454 23.4205H86.4085C85.9946 23.4205 85.6568 23.6054 85.3944 23.9723L79.424 32.5831L76.9459 24.3038C76.7573 23.7154 76.3446 23.4205 75.7067 23.4205H71.4819C71.2937 23.4205 71.1246 23.5035 70.9754 23.6691C70.8247 23.8345 70.75 24.0098 70.75 24.1931C70.75 24.2674 71.1162 25.3523 71.8482 27.4497C72.5803 29.5474 73.3689 31.8104 74.2139 34.2391C75.0589 36.6674 75.4996 37.9559 75.5375 38.1021C72.4582 42.2236 70.9191 44.4316 70.9191 44.7255C70.9191 45.2043 71.163 45.4432 71.6513 45.4432H75.9882C76.4012 45.4432 76.739 45.2596 77.0022 44.8914L91.3652 24.5791C91.4397 24.5061 91.4773 24.3779 91.4773 24.193V24.1931Z" fill="white"/>
<path d="M131.553 23.1678H127.343C126.826 23.1678 126.513 23.7883 126.402 25.0295C125.441 23.5259 123.688 22.7727 121.139 22.7727C118.48 22.7727 116.218 23.7883 114.354 25.8193C112.489 27.8504 111.557 30.2389 111.557 32.9841C111.557 35.2035 112.193 36.9709 113.467 38.2868C114.741 39.604 116.449 40.2613 118.592 40.2613C119.662 40.2613 120.751 40.0353 121.859 39.5844C122.967 39.1331 123.834 38.5316 124.463 37.7791C124.463 37.8169 124.425 37.9857 124.352 38.2865C124.278 38.5879 124.241 38.8141 124.241 38.9634C124.241 39.5659 124.481 39.866 124.962 39.866H128.784C129.485 39.866 129.891 39.5094 130.002 38.7941L132.273 24.0701C132.309 23.8444 132.254 23.6378 132.107 23.4495C131.959 23.2621 131.774 23.1678 131.553 23.1678ZM124.324 34.2815C123.383 35.2218 122.247 35.6918 120.918 35.6918C119.846 35.6918 118.979 35.3914 118.314 34.7893C117.649 34.1887 117.317 33.3612 117.317 32.3069C117.317 30.9164 117.779 29.7404 118.702 28.7814C119.624 27.8223 120.77 27.3427 122.136 27.3427C123.17 27.3427 124.028 27.6531 124.712 28.2734C125.395 28.894 125.737 29.7499 125.737 30.8406C125.737 32.1943 125.266 33.3417 124.324 34.2815Z" fill="#009CDE"/>
<path d="M68.0763 23.1678H63.8666C63.3488 23.1678 63.0356 23.7883 62.9247 25.0295C61.9276 23.5259 60.1734 22.7727 57.6624 22.7727C55.0035 22.7727 52.7414 23.7883 50.8768 25.8193C49.0116 27.8504 48.0796 30.2389 48.0796 32.9841C48.0796 35.2035 48.7167 36.9709 49.9908 38.2868C51.2648 39.604 52.9723 40.2613 55.1144 40.2613C56.1479 40.2613 57.2195 40.0353 58.3271 39.5844C59.4349 39.1331 60.3212 38.5316 60.9859 37.7791C60.8378 38.2302 60.7643 38.6253 60.7643 38.9634C60.7643 39.5659 61.0042 39.866 61.4844 39.866H65.3064C66.0075 39.866 66.4142 39.5094 66.5251 38.7941L68.796 24.0701C68.8324 23.8444 68.7771 23.6378 68.6299 23.4495C68.4821 23.2621 68.2978 23.1678 68.0763 23.1678ZM60.8476 34.3094C59.9057 35.2321 58.7512 35.6918 57.3857 35.6918C56.3142 35.6918 55.4556 35.3914 54.8098 34.7893C54.1632 34.1887 53.8404 33.3612 53.8404 32.3069C53.8404 30.9164 54.3017 29.7404 55.2253 28.7814C56.1479 27.8223 57.2928 27.3427 58.6596 27.3427C59.6931 27.3427 60.5516 27.6531 61.2355 28.2735C61.9182 28.8941 62.2602 29.7501 62.2602 30.8407C62.2602 32.2321 61.7893 33.389 60.8476 34.3094Z" fill="white"/>
<path d="M110.716 16.4721C109.292 15.4915 107.433 15 105.139 15H96.3161C95.5759 15 95.1686 15.3521 95.0954 16.0553L91.4884 38.7244C91.4509 38.9472 91.5064 39.1508 91.6548 39.336C91.8015 39.5214 91.9876 39.6136 92.2096 39.6136H96.7596C97.2035 39.6136 97.4993 39.3732 97.6475 38.8915L98.6465 32.4466C98.6832 32.1504 98.8127 31.9096 99.0349 31.7241C99.257 31.539 99.5341 31.4179 99.8674 31.3624C100.2 31.3074 100.514 31.2797 100.811 31.2797C101.106 31.2797 101.458 31.2984 101.865 31.3352C102.272 31.3722 102.531 31.3902 102.642 31.3902C105.823 31.3902 108.32 30.4927 110.133 28.6957C111.946 26.8994 112.852 24.4085 112.852 21.2224C112.852 19.0372 112.14 17.4537 110.716 16.4716V16.4721ZM105.028 25.6124C104.214 26.1679 102.993 26.4456 101.366 26.4456L99.5901 26.5013L100.533 20.556C100.607 20.1489 100.847 19.9451 101.255 19.9451H102.253C103.067 19.9451 103.714 19.9822 104.196 20.056C104.676 20.1308 105.139 20.3616 105.583 20.7505C106.027 21.1396 106.249 21.7046 106.249 22.4454C106.249 24.0011 105.842 25.0566 105.028 25.6124Z" fill="#009CDE"/>
</svg>
