<svg width="170" height="60" viewBox="0 0 170 60" fill="none" xmlns="http://www.w3.org/2000/svg">
<path d="M17.58 33.005V28.735H22.9C23.5767 28.735 24.195 28.595 24.755 28.315C25.315 28.035 25.7583 27.6267 26.085 27.09C26.4117 26.5533 26.575 25.9 26.575 25.13C26.575 24.3833 26.4117 23.7417 26.085 23.205C25.7583 22.6683 25.315 22.26 24.755 21.98C24.195 21.7 23.5767 21.56 22.9 21.56H17.58V17.29H23.705C25.2683 17.29 26.68 17.605 27.94 18.235C29.2 18.865 30.1917 19.775 30.915 20.965C31.6617 22.1317 32.035 23.52 32.035 25.13C32.035 26.74 31.6617 28.14 30.915 29.33C30.1917 30.4967 29.2 31.4067 27.94 32.06C26.68 32.69 25.2683 33.005 23.705 33.005H17.58ZM13.38 42V17.29H18.875V42H13.38ZM41.2548 42.35C39.6914 42.35 38.2914 41.965 37.0548 41.195C35.8414 40.425 34.8731 39.375 34.1498 38.045C33.4498 36.715 33.0998 35.1983 33.0998 33.495C33.0998 31.7917 33.4498 30.275 34.1498 28.945C34.8731 27.615 35.8414 26.565 37.0548 25.795C38.2914 25.025 39.6914 24.64 41.2548 24.64C42.3981 24.64 43.4248 24.8617 44.3348 25.305C45.2681 25.7483 46.0264 26.3667 46.6098 27.16C47.1931 27.93 47.5198 28.8167 47.5898 29.82V37.17C47.5198 38.1733 47.1931 39.0717 46.6098 39.865C46.0498 40.635 45.3031 41.2417 44.3698 41.685C43.4364 42.1283 42.3981 42.35 41.2548 42.35ZM42.3398 37.52C43.4831 37.52 44.4048 37.1467 45.1048 36.4C45.8048 35.63 46.1548 34.6617 46.1548 33.495C46.1548 32.7017 45.9914 32.0017 45.6648 31.395C45.3614 30.7883 44.9181 30.3217 44.3348 29.995C43.7748 29.645 43.1214 29.47 42.3748 29.47C41.6281 29.47 40.9631 29.645 40.3798 29.995C39.8198 30.3217 39.3648 30.7883 39.0148 31.395C38.6881 32.0017 38.5248 32.7017 38.5248 33.495C38.5248 34.265 38.6881 34.9533 39.0148 35.56C39.3414 36.1667 39.7964 36.645 40.3798 36.995C40.9631 37.345 41.6164 37.52 42.3398 37.52ZM45.9448 42V37.415L46.7498 33.285L45.9448 29.155V24.99H51.1948V42H45.9448ZM60.2152 42.07L53.2152 24.99H58.9902L63.4352 38.535H61.3002L65.8502 24.99H71.6252L64.3452 42.07H60.2152ZM55.8402 49.175L60.9502 38.15L64.3452 42.07L61.3352 49.175H55.8402ZM79.2413 42.42C78.2379 42.42 77.2463 42.2917 76.2663 42.035C75.3096 41.7783 74.4113 41.4167 73.5713 40.95C72.7546 40.46 72.0546 39.9 71.4713 39.27L74.5163 36.19C75.0763 36.7967 75.7413 37.275 76.5113 37.625C77.2813 37.9517 78.1213 38.115 79.0313 38.115C79.6613 38.115 80.1396 38.0217 80.4663 37.835C80.8163 37.6483 80.9913 37.3917 80.9913 37.065C80.9913 36.645 80.7813 36.33 80.3613 36.12C79.9646 35.8867 79.4513 35.6883 78.8213 35.525C78.1913 35.3383 77.5263 35.14 76.8263 34.93C76.1262 34.72 75.4613 34.4283 74.8313 34.055C74.2013 33.6817 73.6879 33.1683 73.2913 32.515C72.8946 31.8383 72.6963 30.9867 72.6963 29.96C72.6963 28.8633 72.9763 27.9183 73.5363 27.125C74.0963 26.3083 74.8896 25.6667 75.9163 25.2C76.9429 24.7333 78.1446 24.5 79.5213 24.5C80.9679 24.5 82.2979 24.7567 83.5113 25.27C84.7479 25.76 85.7513 26.495 86.5213 27.475L83.4763 30.555C82.9396 29.925 82.3329 29.4817 81.6563 29.225C81.0029 28.9683 80.3613 28.84 79.7313 28.84C79.1246 28.84 78.6696 28.9333 78.3663 29.12C78.0629 29.2833 77.9113 29.5283 77.9113 29.855C77.9113 30.205 78.1096 30.485 78.5063 30.695C78.9029 30.905 79.4163 31.0917 80.0463 31.255C80.6763 31.4183 81.3413 31.6167 82.0413 31.85C82.7413 32.0833 83.4063 32.3983 84.0363 32.795C84.6663 33.1917 85.1796 33.7283 85.5763 34.405C85.9729 35.0583 86.1713 35.9217 86.1713 36.995C86.1713 38.6517 85.5413 39.97 84.2813 40.95C83.0446 41.93 81.3646 42.42 79.2413 42.42ZM91.4915 42V17.955H96.8465V42H91.4915ZM87.6415 29.54V24.99H100.697V29.54H87.6415ZM109.819 42.35C108.256 42.35 106.856 41.965 105.619 41.195C104.406 40.425 103.438 39.375 102.714 38.045C102.014 36.715 101.664 35.1983 101.664 33.495C101.664 31.7917 102.014 30.275 102.714 28.945C103.438 27.615 104.406 26.565 105.619 25.795C106.856 25.025 108.256 24.64 109.819 24.64C110.963 24.64 111.989 24.8617 112.899 25.305C113.833 25.7483 114.591 26.3667 115.174 27.16C115.758 27.93 116.084 28.8167 116.154 29.82V37.17C116.084 38.1733 115.758 39.0717 115.174 39.865C114.614 40.635 113.868 41.2417 112.934 41.685C112.001 42.1283 110.963 42.35 109.819 42.35ZM110.904 37.52C112.048 37.52 112.969 37.1467 113.669 36.4C114.369 35.63 114.719 34.6617 114.719 33.495C114.719 32.7017 114.556 32.0017 114.229 31.395C113.926 30.7883 113.483 30.3217 112.899 29.995C112.339 29.645 111.686 29.47 110.939 29.47C110.193 29.47 109.528 29.645 108.944 29.995C108.384 30.3217 107.929 30.7883 107.579 31.395C107.253 32.0017 107.089 32.7017 107.089 33.495C107.089 34.265 107.253 34.9533 107.579 35.56C107.906 36.1667 108.361 36.645 108.944 36.995C109.528 37.345 110.181 37.52 110.904 37.52ZM114.509 42V37.415L115.314 33.285L114.509 29.155V24.99H119.759V42H114.509ZM131.755 42.385C130.005 42.385 128.418 42 126.995 41.23C125.571 40.46 124.451 39.3983 123.635 38.045C122.818 36.6917 122.41 35.175 122.41 33.495C122.41 31.7917 122.818 30.275 123.635 28.945C124.475 27.5917 125.606 26.53 127.03 25.76C128.453 24.99 130.051 24.605 131.825 24.605C133.155 24.605 134.368 24.8383 135.465 25.305C136.585 25.7483 137.576 26.425 138.44 27.335L135.01 30.765C134.613 30.3217 134.146 29.995 133.61 29.785C133.096 29.575 132.501 29.47 131.825 29.47C131.055 29.47 130.366 29.645 129.76 29.995C129.176 30.3217 128.71 30.7883 128.36 31.395C128.033 31.9783 127.87 32.6667 127.87 33.46C127.87 34.2533 128.033 34.9533 128.36 35.56C128.71 36.1667 129.188 36.645 129.795 36.995C130.401 37.345 131.078 37.52 131.825 37.52C132.525 37.52 133.143 37.4033 133.68 37.17C134.24 36.9133 134.718 36.5633 135.115 36.12L138.51 39.55C137.623 40.4833 136.62 41.195 135.5 41.685C134.38 42.1517 133.131 42.385 131.755 42.385ZM151.778 42L145.828 33.18L151.743 24.99H157.728L150.588 34.195L150.763 31.99L158.078 42H151.778ZM140.893 42V16.59H146.248V42H140.893Z" fill="white"/>
</svg>
