<svg width="38" height="36" viewBox="0 0 38 36" fill="none" xmlns="http://www.w3.org/2000/svg">
<path d="M28.4794 0C23.9762 8.5275 21.4881 12.78 18.9794 12.78C16.4708 12.78 13.9827 8.5275 9.5 0C13.9827 8.5275 16.1212 13.0275 14.8669 15.39C13.6126 17.7525 8.98593 18 0 18C9.31493 18 13.9416 18.2475 14.9903 20.8575C15.9773 23.2875 13.8387 27.765 9.5 36C14.0032 27.4725 16.4913 23.22 19 23.22C21.5087 23.22 23.9968 27.4725 28.5 36C23.7294 26.9325 21.632 22.4325 23.4004 20.1825C24.9632 18.2025 29.5693 18 38 18C28.5 18 23.8734 17.73 22.9481 14.9625C22.105 12.4875 24.2435 8.0325 28.4794 0Z" fill="white"/>
</svg>
