<svg width="170" height="60" viewBox="0 0 170 60" fill="none" xmlns="http://www.w3.org/2000/svg">
<path d="M44.8 42.385C42.77 42.385 41.02 42.0583 39.55 41.405C38.1033 40.7283 36.7733 39.7133 35.56 38.36L39.13 34.825C39.9233 35.735 40.7983 36.4467 41.755 36.96C42.735 37.45 43.8667 37.695 45.15 37.695C46.3167 37.695 47.215 37.485 47.845 37.065C48.4983 36.645 48.825 36.0617 48.825 35.315C48.825 34.6383 48.615 34.09 48.195 33.67C47.775 33.25 47.215 32.8883 46.515 32.585C45.8383 32.2817 45.08 31.99 44.24 31.71C43.4233 31.43 42.6067 31.115 41.79 30.765C40.9733 30.3917 40.215 29.9367 39.515 29.4C38.8383 28.84 38.29 28.1517 37.87 27.335C37.45 26.495 37.24 25.445 37.24 24.185C37.24 22.6683 37.6017 21.3617 38.325 20.265C39.0717 19.1683 40.0983 18.34 41.405 17.78C42.7117 17.1967 44.2167 16.905 45.92 16.905C47.6467 16.905 49.2217 17.2083 50.645 17.815C52.0917 18.4217 53.2817 19.25 54.215 20.3L50.645 23.835C49.8983 23.065 49.14 22.4933 48.37 22.12C47.6233 21.7467 46.7717 21.56 45.815 21.56C44.8583 21.56 44.1 21.7467 43.54 22.12C42.98 22.47 42.7 22.9833 42.7 23.66C42.7 24.29 42.91 24.8033 43.33 25.2C43.75 25.5733 44.2983 25.9 44.975 26.18C45.675 26.46 46.4333 26.74 47.25 27.02C48.09 27.3 48.9183 27.6267 49.735 28C50.5517 28.3733 51.2983 28.8517 51.975 29.435C52.675 29.995 53.235 30.7183 53.655 31.605C54.075 32.4683 54.285 33.5417 54.285 34.825C54.285 37.1817 53.445 39.0367 51.765 40.39C50.085 41.72 47.7633 42.385 44.8 42.385ZM59.7103 42V17.955H65.0653V42H59.7103ZM55.8603 29.54V24.99H68.9153V29.54H55.8603ZM71.2748 42V24.99H76.6298V42H71.2748ZM76.6298 32.655L74.3898 30.905C74.8331 28.9217 75.5798 27.3817 76.6298 26.285C77.6798 25.1883 79.1381 24.64 81.0048 24.64C81.8214 24.64 82.5331 24.7683 83.1398 25.025C83.7698 25.2583 84.3181 25.6317 84.7848 26.145L81.5998 30.17C81.3664 29.9133 81.0748 29.715 80.7248 29.575C80.3748 29.435 79.9781 29.365 79.5348 29.365C78.6481 29.365 77.9364 29.645 77.3998 30.205C76.8864 30.7417 76.6298 31.5583 76.6298 32.655ZM86.2113 42V24.99H91.5663V42H86.2113ZM88.9063 22.645C88.0663 22.645 87.3663 22.365 86.8063 21.805C86.2696 21.2217 86.0013 20.5217 86.0013 19.705C86.0013 18.865 86.2696 18.165 86.8063 17.605C87.3663 17.045 88.0663 16.765 88.9063 16.765C89.7463 16.765 90.4346 17.045 90.9713 17.605C91.508 18.165 91.7763 18.865 91.7763 19.705C91.7763 20.5217 91.508 21.2217 90.9713 21.805C90.4346 22.365 89.7463 22.645 88.9063 22.645ZM105.137 42.35C103.994 42.35 102.944 42.1283 101.987 41.685C101.031 41.2417 100.249 40.635 99.6423 39.865C99.0356 39.0717 98.6856 38.1733 98.5923 37.17V29.995C98.6856 28.9917 99.0356 28.0817 99.6423 27.265C100.249 26.4483 101.031 25.8067 101.987 25.34C102.944 24.8733 103.994 24.64 105.137 24.64C106.747 24.64 108.171 25.025 109.407 25.795C110.667 26.565 111.647 27.615 112.347 28.945C113.071 30.275 113.432 31.7917 113.432 33.495C113.432 35.1983 113.071 36.715 112.347 38.045C111.647 39.375 110.667 40.425 109.407 41.195C108.171 41.965 106.747 42.35 105.137 42.35ZM104.157 37.52C104.927 37.52 105.592 37.345 106.152 36.995C106.736 36.645 107.191 36.1667 107.517 35.56C107.844 34.9533 108.007 34.265 108.007 33.495C108.007 32.7017 107.844 32.0017 107.517 31.395C107.191 30.7883 106.736 30.3217 106.152 29.995C105.592 29.645 104.939 29.47 104.192 29.47C103.446 29.47 102.781 29.645 102.197 29.995C101.637 30.3217 101.194 30.7883 100.867 31.395C100.541 32.0017 100.377 32.7017 100.377 33.495C100.377 34.265 100.529 34.9533 100.832 35.56C101.159 36.1667 101.614 36.645 102.197 36.995C102.781 37.345 103.434 37.52 104.157 37.52ZM95.3373 49.175V24.99H100.692V29.365L99.8173 33.495L100.622 37.625V49.175H95.3373ZM124.553 42.385C122.709 42.385 121.064 42.0117 119.618 41.265C118.194 40.495 117.074 39.4333 116.258 38.08C115.441 36.7267 115.033 35.1983 115.033 33.495C115.033 31.7917 115.429 30.275 116.223 28.945C117.039 27.5917 118.136 26.53 119.513 25.76C120.889 24.99 122.441 24.605 124.168 24.605C125.848 24.605 127.329 24.9667 128.613 25.69C129.896 26.4133 130.899 27.4167 131.623 28.7C132.369 29.9833 132.743 31.4533 132.743 33.11C132.743 33.4133 132.719 33.74 132.673 34.09C132.649 34.4167 132.591 34.8017 132.498 35.245L117.833 35.28V31.605L130.223 31.57L127.913 33.11C127.889 32.13 127.738 31.325 127.458 30.695C127.178 30.0417 126.758 29.5517 126.198 29.225C125.661 28.875 124.996 28.7 124.203 28.7C123.363 28.7 122.628 28.8983 121.998 29.295C121.391 29.6683 120.913 30.205 120.563 30.905C120.236 31.605 120.073 32.4567 120.073 33.46C120.073 34.4633 120.248 35.3267 120.598 36.05C120.971 36.75 121.484 37.2983 122.138 37.695C122.814 38.0683 123.608 38.255 124.518 38.255C125.358 38.255 126.116 38.115 126.793 37.835C127.469 37.5317 128.064 37.0883 128.578 36.505L131.518 39.445C130.678 40.425 129.663 41.16 128.473 41.65C127.283 42.14 125.976 42.385 124.553 42.385Z" fill="white"/>
</svg>
