<svg width="170" height="60" viewBox="0 0 170 60" fill="none" xmlns="http://www.w3.org/2000/svg">
<path d="M72.7945 42.2735L77.0333 17.5063H83.8133L79.5714 42.2735H72.7945ZM104.066 18.0402C102.722 17.5385 100.617 17 97.9892 17C91.2899 17 86.5708 20.359 86.5308 25.1734C86.4928 28.7324 89.8997 30.7177 92.4712 31.9024C95.1104 33.1164 95.9974 33.8905 95.9849 34.9746C95.9683 36.6347 93.8775 37.3932 91.9289 37.3932C89.2152 37.3932 87.7736 37.0178 85.547 36.0931L84.6733 35.6996L83.7217 41.244C85.3053 41.9353 88.2337 42.5342 91.274 42.5652C98.4009 42.5652 103.027 39.2446 103.08 34.1034C103.105 31.286 101.299 29.1419 97.3876 27.3742C95.0179 26.2286 93.5666 25.4639 93.5819 24.3039C93.5819 23.2744 94.8104 22.1734 97.4646 22.1734C99.6817 22.1393 101.288 22.6207 102.539 23.1223L103.147 23.4083L104.066 18.0402ZM121.512 17.5059H116.273C114.65 17.5059 113.436 17.9471 112.723 19.5598L102.654 42.2571H109.774C109.774 42.2571 110.938 39.2052 111.201 38.5352C111.979 38.5352 118.895 38.5459 119.884 38.5459C120.087 39.4129 120.709 42.2571 120.709 42.2571H127L121.512 17.5052V17.5059ZM113.2 33.4991C113.761 32.0721 115.902 26.5756 115.902 26.5756C115.861 26.6417 116.458 25.1417 116.8 24.2118L117.258 26.3473C117.258 26.3473 118.557 32.2593 118.828 33.4991H113.2ZM67.0388 17.5059L60.4011 34.3961L59.6938 30.9637C58.4581 27.0071 54.6082 22.7204 50.3042 20.5743L56.3734 42.2341L63.5468 42.226L74.2205 17.5057H67.0388" fill="white"/>
<path d="M53.9957 17.6091H43.0863L43 18.1213C51.4872 20.1591 57.1031 25.0835 59.4348 30.9999L57.0625 19.687C56.653 18.1283 55.4653 17.6631 53.9959 17.6086" fill="#F2AE14"/>
</svg>
