<svg width="45" height="45" viewBox="0 0 45 45" fill="none" xmlns="http://www.w3.org/2000/svg">
<rect width="45" height="45" rx="22.5" fill="#D9D9D9"/>
<g clip-path="url(#clip0_450_987)">
<path d="M22.5 43C33.8218 43 43 33.8218 43 22.5C43 11.1782 33.8218 2 22.5 2C11.1782 2 2 11.1782 2 22.5C2 33.8218 11.1782 43 22.5 43Z" fill="#F7931A"/>
<path d="M31.5098 19.9631C31.9121 17.2776 29.8659 15.8337 27.0702 14.8702L27.9773 11.2314L25.7633 10.6805L24.8793 14.2231C24.2976 14.0771 23.7005 13.9412 23.1047 13.8054L23.9952 10.2397L21.7812 9.6875L20.8741 13.325C20.3923 13.2148 19.9183 13.1072 19.4596 12.9918L19.4622 12.9803L16.4077 12.218L15.8183 14.5832C15.8183 14.5832 17.4621 14.9598 17.4275 14.9829C18.3244 15.2071 18.4858 15.8003 18.4589 16.2718L17.4262 20.4167C17.4878 20.4321 17.5672 20.4551 17.6569 20.4897L17.4224 20.4321L15.9746 26.2387C15.8644 26.5103 15.5864 26.919 14.9586 26.764C14.9816 26.796 13.3493 26.363 13.3493 26.363L12.25 28.8973L15.1328 29.6161C15.6684 29.7506 16.1937 29.8915 16.71 30.0235L15.7939 33.7032L18.0067 34.2542L18.9138 30.6154C19.5185 30.7782 20.1053 30.9293 20.6793 31.0728L19.7748 34.6962L21.9888 35.2472L22.9049 31.5751C26.682 32.29 29.5212 32.0017 30.7167 28.5859C31.6802 25.8364 30.6693 24.2489 28.682 23.2149C30.1298 22.8818 31.2189 21.9298 31.5098 19.9631ZM26.4488 27.0587C25.7659 29.8095 21.1342 28.322 19.6326 27.9492L20.8498 23.074C22.3514 23.4494 27.165 24.1912 26.4488 27.0587ZM27.1343 19.9234C26.5103 22.4257 22.6563 21.1534 21.4071 20.8421L22.509 16.4217C23.7582 16.7331 27.7852 17.3135 27.1343 19.9234Z" fill="white"/>
</g>
<defs>
<clipPath id="clip0_450_987">
<rect width="41" height="41" fill="white" transform="translate(2 2)"/>
</clipPath>
</defs>
</svg>
