<svg width="45" height="47" viewBox="0 0 45 47" fill="none" xmlns="http://www.w3.org/2000/svg">
<rect y="0.746094" width="45" height="45.9984" rx="22.5" fill="#D9D9D9"/>
<g clip-path="url(#clip0_2042_290)">
<path d="M22.5 44.7001C33.8218 44.7001 43 35.3184 43 23.7453C43 12.1723 33.8218 2.79053 22.5 2.79053C11.1782 2.79053 2 12.1723 2 23.7453C2 35.3184 11.1782 44.7001 22.5 44.7001Z" fill="#26A17B"/>
<path fill-rule="evenodd" clip-rule="evenodd" d="M24.5782 25.7936V25.7909C24.4372 25.8014 23.7108 25.8459 22.09 25.8459C20.7959 25.8459 19.885 25.8067 19.5647 25.7909V25.7949C14.5832 25.5709 10.865 24.6843 10.865 23.6234C10.865 22.5639 14.5832 21.6772 19.5647 21.4494V24.9121C19.8901 24.9357 20.8228 24.992 22.1118 24.992C23.6582 24.992 24.4334 24.9266 24.5782 24.9135V21.452C29.5494 21.6786 33.2587 22.5652 33.2587 23.6234C33.2587 24.6843 29.5494 25.5683 24.5782 25.7936V25.7936ZM24.5782 21.0918V17.9931H31.5149V13.2678H12.628V17.9931H19.5647V21.0905C13.9272 21.3551 9.6875 22.4971 9.6875 23.8644C9.6875 25.2317 13.9272 26.3724 19.5647 26.6383V36.5683H24.5782V26.6357C30.2067 26.3711 34.4361 25.2304 34.4361 23.8644C34.4361 22.4984 30.2067 21.3577 24.5782 21.0918" fill="white"/>
</g>
<defs>
<clipPath id="clip0_2042_290">
<rect width="41" height="41.9096" fill="white" transform="translate(2 2.79053)"/>
</clipPath>
</defs>
</svg>
